<?xml version="1.0" standalone="no"?>
<!DOCTYPE svg PUBLIC "-//W3C//DTD SVG 1.1//EN" "http://www.w3.org/Graphics/SVG/1.1/DTD/svg11.dtd" >
<svg xmlns="http://www.w3.org/2000/svg">
<metadata></metadata>
<defs>
<font id="essential_pragmataproregular" horiz-adv-x="1024" >
<font-face units-per-em="2048" ascent="1638" descent="-410" />
<missing-glyph horiz-adv-x="500" />
<glyph unicode=" " />
<glyph unicode="!" d="M607 1132l-30 -640h-131l-30 640v394h191v-394zM642 110q0 -54 -38.5 -91.5t-92.5 -37.5t-92 37.5t-38 91.5q0 55 38 93t92 38t92.5 -38t38.5 -93z" />
<glyph unicode="&#x22;" d="M809 954h-171v572h171v-572zM385 954h-171v572h171v-572z" />
<glyph unicode="#" d="M935 395h-222l-68 -395h-171l68 395h-192l-68 -395h-171l68 395h-169v145h194l77 447h-196v145h221l68 394h171l-68 -394h192l68 394h171l-68 -394h174v-145h-199l-77 -447h197v-145zM567 540l77 447h-192l-77 -447h192z" />
<glyph unicode="$" d="M917 395q0 -146 -86.5 -245.5t-210.5 -121.5v-309h-171v306q-217 22 -343 245l126 95q99 -191 293 -191q91 0 156 58t65 162q0 89 -113 180l-304 243q-160 129 -160 325q0 136 78 235t202 121v310h171v-308q165 -17 298 -200l-131 -102q-84 156 -239 156 q-89 0 -148.5 -51t-59.5 -160q0 -114 91 -187l304 -244q182 -145 182 -317z" />
<glyph unicode="%" d="M914 1526l-640 -1526h-165l641 1526h164zM454 1349q0 -88 -54 -142.5t-125 -54.5q-70 0 -123 54.5t-53 142.5q0 86 53 141.5t123 55.5q71 0 125 -55.5t54 -141.5zM923 177q0 -88 -54 -142t-124 -54q-71 0 -123.5 54t-52.5 142q0 87 52.5 142t123.5 55q70 0 124 -55.5 t54 -141.5z" />
<glyph unicode="&#x26;" d="M777 435l208 -383v-52h-149l-133 243q-90 -262 -284 -262q-159 0 -233.5 119.5t-74.5 324.5q0 313 230 486l-46 85q-62 116 -62 230q0 139 80.5 230.5t205.5 91.5q205 0 279 -257l-149 -61q-38 166 -130 166q-52 0 -83.5 -47.5t-31.5 -132.5q0 -94 80 -242l195 -359 l71 237h138v-43zM419 131q100 0 153 178l34 115l-194 356q-130 -113 -130 -355q0 -294 137 -294z" />
<glyph unicode="'" d="M597 954h-171v572h171v-572z" />
<glyph unicode="(" d="M261 763q0 610 526 974l86 -116q-449 -320 -449 -858t449 -858l-86 -116q-526 365 -526 974z" />
<glyph unicode=")" d="M763 763q0 -609 -526 -974l-86 116q449 320 449 858t-449 858l86 116q526 -364 526 -974z" />
<glyph unicode="*" d="M512 778l-197 -297l-130 92l220 282l-344 98l49 152l333 -123l-14 361h165l-13 -361l333 123l49 -152l-344 -98l219 -282l-129 -93z" />
<glyph unicode="+" d="M938 534h-351v-353h-150v353h-351v145h351v354h150v-354h351v-145z" />
<glyph unicode="," d="M709 150q0 -185 -195 -503h-170q123 195 164 353q-84 3 -138 55.5t-54 130.5q0 87 51.5 142.5t134.5 55.5q94 0 150.5 -64.5t56.5 -169.5z" />
<glyph unicode="-" d="M938 534h-852v145h852v-145z" />
<glyph unicode="." d="M709 177q0 -78 -56.5 -137t-141.5 -59q-86 0 -140.5 59t-54.5 137q0 77 54.5 137t140.5 60q85 0 141.5 -60.5t56.5 -136.5z" />
<glyph unicode="/" d="M919 1526l-640 -1526h-175l640 1526h175z" />
<glyph unicode="0" d="M104 764q0 159 102 526q68 258 301 258q243 0 311 -258q102 -367 102 -526q0 -158 -102 -525q-68 -258 -311 -258q-233 0 -301 258q-102 367 -102 525zM750 764q0 160 -90 483q-36 144 -153 145q-107 -1 -143 -145q-90 -323 -90 -483t90 -484q36 -144 143 -145 q117 1 153 145q90 324 90 484zM607 676h-85l-110 222h85z" />
<glyph unicode="1" d="M543 0v1321l-287 -225l-77 130l383 300h152v-1526h-171z" />
<glyph unicode="2" d="M885 0h-707v145q0 236 225 523l227 291q84 107 84 213q0 112 -54 166.5t-148 54.5q-162 0 -233 -195l-140 97q131 253 373 253q155 0 264 -106.5t109 -270.5q0 -161 -131 -327l-223 -286q-183 -235 -183 -413h537v-145z" />
<glyph unicode="3" d="M97 232l139 93q71 -190 263 -190q100 0 166.5 69.5t66.5 245.5q0 166 -78.5 226t-183.5 60h-74v145h74q89 0 160 63.5t71 197.5q0 131 -57 191t-145 60q-162 0 -233 -190l-139 92q141 253 373 253q165 0 268.5 -111t103.5 -295q0 -246 -203 -333q234 -66 234 -359 q0 -230 -114 -349.5t-289 -119.5q-262 0 -403 251z" />
<glyph unicode="4" d="M891 414h-99v-414h-170v414h-537v145l498 967h209v-967h99v-145zM622 559v719l-371 -719h371z" />
<glyph unicode="5" d="M890 476q0 -236 -114 -365.5t-278 -129.5q-248 0 -373 235l139 92q71 -173 233 -173q88 0 155 79t67 262q0 186 -66 260t-214 74h-226v716h645v-145h-475v-417h86q189 0 305 -113.5t116 -374.5z" />
<glyph unicode="6" d="M918 459q0 -228 -107.5 -353t-274.5 -125q-155 0 -268.5 125t-113.5 423v451q0 288 109 428t291 140q205 0 337 -209l-139 -97q-65 151 -196 151q-108 0 -169.5 -88.5t-61.5 -324.5v-213q91 168 262 168q149 0 240 -121t91 -355zM748 459q0 185 -53.5 253t-138.5 68 q-182 0 -231 -218q0 -278 60 -352.5t152 -74.5q88 0 149.5 74.5t61.5 249.5z" />
<glyph unicode="7" d="M645 773q-145 -289 -153 -620l-5 -153h-170l5 165q9 323 193 691l137 276q72 141 72 249h-588v145h758v-70q0 -187 -112 -407z" />
<glyph unicode="8" d="M511 -19q-174 0 -288 110t-114 297q0 281 261 430q-220 154 -220 362q0 166 103.5 267t257.5 101q156 0 259.5 -101t103.5 -267q0 -207 -220 -362q261 -149 261 -430q0 -187 -114 -297t-290 -110zM511 1393q-84 0 -137.5 -54.5t-53.5 -158.5q0 -168 191 -285 q193 117 193 285q0 104 -53 158.5t-140 54.5zM511 722q-232 -114 -232 -334q0 -138 64.5 -195.5t167.5 -57.5q105 0 169.5 57.5t64.5 195.5q0 220 -234 334z" />
<glyph unicode="9" d="M106 1069q0 228 107.5 353.5t274.5 125.5q155 0 268.5 -125.5t113.5 -423.5v-450q0 -289 -109 -428.5t-292 -139.5q-204 0 -336 208l139 91q65 -145 196 -145q108 0 170 88.5t62 325.5v212q-86 -168 -263 -168q-149 0 -240 121.5t-91 354.5zM276 1069q0 -188 53.5 -255.5 t138.5 -67.5q183 0 232 235q0 263 -60.5 337.5t-152.5 74.5q-88 0 -149.5 -74.5t-61.5 -249.5z" />
<glyph unicode=":" d="M709 177q0 -78 -56.5 -137t-141.5 -59q-86 0 -140.5 59t-54.5 137q0 77 54.5 137t140.5 60q85 0 141.5 -60.5t56.5 -136.5zM709 956q0 -78 -56.5 -137t-141.5 -59q-86 0 -140.5 59t-54.5 137t54.5 137.5t140.5 59.5q85 0 141.5 -60t56.5 -137z" />
<glyph unicode=";" d="M709 956q0 -78 -56.5 -137t-141.5 -59q-86 0 -140.5 59t-54.5 137t54.5 137.5t140.5 59.5q85 0 141.5 -60t56.5 -137zM709 150q0 -185 -195 -503h-170q123 195 164 353q-84 3 -138 55.5t-54 130.5q0 87 51.5 142.5t134.5 55.5q94 0 150.5 -64.5t56.5 -169.5z" />
<glyph unicode="&#x3c;" d="M202 607l705 -377v-183l-829 452v215l829 452v-183z" />
<glyph unicode="=" d="M937 719h-851v145h851v-145zM937 349h-851v145h851v-145z" />
<glyph unicode="&#x3e;" d="M117 983v183l829 -452v-215l-829 -452v183l705 377z" />
<glyph unicode="?" d="M860 1180q0 -124 -80 -243l-186 -270q-38 -56 -38 -120v-55h-171v56q0 113 68 214l191 280q45 66 45 139q0 83 -54.5 143t-147.5 60q-161 0 -244 -181l-139 92q141 253 384 253q163 0 267.5 -106t104.5 -262zM619 110q0 -54 -38 -91.5t-93 -37.5q-54 0 -92 37.5t-38 91.5 q0 55 38 93t92 38q55 0 93 -38t38 -93z" />
<glyph unicode="@" d="M541 1399q-138 0 -225.5 -102t-87.5 -323v-437q0 -204 102 -306t265 -102q224 0 372 152v-180q-142 -120 -375 -120q-225 0 -370.5 145.5t-145.5 410.5v437q0 283 131 428.5t334 145.5q182 0 304 -114t122 -390v-406q0 -147 -83.5 -230.5t-201.5 -83.5q-117 0 -200 83.5 t-83 230.5v132q0 362 244 362q99 0 172 -87v21q0 195 -83 264t-191 69zM815 810q0 87 -38.5 134t-104.5 47q-118 0 -121 -192v-172q0 -85 38 -123.5t93 -38.5q56 0 94.5 38.5t38.5 123.5v183z" />
<glyph unicode="A" d="M279 85v-85h-170v85q0 219 131 738l176 703h192l176 -703q131 -519 131 -738v-85h-170v85q0 103 -29 272h-409q-28 -169 -28 -272zM512 1256l-127 -528q-30 -122 -51 -226h355q-21 104 -50 226z" />
<glyph unicode="B" d="M903 465q0 -235 -123.5 -350t-326.5 -115h-294v1526h310q196 0 294.5 -100.5t98.5 -267.5q0 -242 -207 -319q248 -76 248 -374zM686 1158q0 123 -54 173t-163 50h-140v-488h120q99 0 168 63.5t69 201.5zM727 465q0 160 -58.5 221.5t-162.5 61.5h-177v-603h123 q147 0 211 69t64 251z" />
<glyph unicode="C" d="M947 226q-142 -245 -388 -245q-166 0 -280 111t-114 409v526q0 289 114 405t278 116q257 0 380 -248l-139 -84q-76 177 -240 177q-95 0 -158.5 -69.5t-63.5 -296.5v-526q0 -227 63.5 -296.5t158.5 -69.5q164 0 250 185z" />
<glyph unicode="D" d="M927 626q0 -299 -136.5 -462.5t-370.5 -163.5h-252v1526h252q234 0 370.5 -154t136.5 -451v-295zM752 626v295q0 233 -89 346.5t-243 113.5h-83v-1236h83q154 0 243 121t89 360z" />
<glyph unicode="E" d="M893 0h-704v1526h704v-145h-534v-494h394v-145h-394v-597h534v-145z" />
<glyph unicode="F" d="M937 1381h-553v-494h445v-145h-445v-742h-170v1526h723v-145z" />
<glyph unicode="G" d="M894 463q0 -250 -109 -366t-273 -116t-270.5 116t-106.5 366v602q0 251 107 367t281 116q232 0 355 -248l-139 -84q-76 177 -215 177q-104 0 -161.5 -69.5t-57.5 -258.5v-602q0 -189 55 -258.5t152 -69.5q95 0 153.5 70t58.5 258v208h-181v145h351v-353z" />
<glyph unicode="H" d="M879 0h-170v763h-394v-763h-170v1526h170v-618h394v618h170v-1526z" />
<glyph unicode="I" d="M838 0h-653v145h241v1236h-189v145h549v-145h-189v-1236h241v-145z" />
<glyph unicode="J" d="M843 459q0 -248 -104 -363t-258 -115q-144 0 -253 115t-109 363v223h170v-224q0 -184 56.5 -253.5t134.5 -69.5q88 0 140 69.5t52 253.5v1068h171v-1067z" />
<glyph unicode="K" d="M363 1526v-729l259 381q128 186 140 293l7 55h170l-9 -74q-16 -123 -178 -363l-158 -235l226 -384q139 -235 156 -402l9 -68h-170l-5 53q-20 160 -124 334l-204 344l-119 -177v-554h-170v1526h170z" />
<glyph unicode="L" d="M937 0h-694v1526h170v-1381h524v-145z" />
<glyph unicode="M" d="M902 0h-170v403q0 386 30 905l-197 -632h-106l-197 632q30 -519 30 -905v-403h-170v1526h170l220 -634l220 634h170v-1526z" />
<glyph unicode="N" d="M879 0h-158l-12 462l-433 827q39 -463 39 -780v-509h-170v1526h170l433 -827q-39 463 -39 780v47h170v-1526z" />
<glyph unicode="O" d="M137 463v602q0 251 104.5 367t270.5 116t270.5 -116t104.5 -367v-602q0 -250 -104.5 -366t-270.5 -116q-166 1 -270.5 116.5t-104.5 365.5zM308 463q0 -189 53.5 -258.5t149.5 -69.5t150.5 70t54.5 258v602q0 188 -54.5 258t-150.5 70t-149.5 -69.5t-53.5 -258.5v-602z " />
<glyph unicode="P" d="M363 0h-170v1526h333q203 0 307 -110.5t104 -294.5q0 -207 -114 -317.5t-297 -110.5h-163v-693zM363 838h162q117 0 176.5 59.5t59.5 223.5q0 141 -54.5 200.5t-181.5 59.5h-162v-543z" />
<glyph unicode="Q" d="M887 463q0 -345 -209 -446l110 -277h-180l-96 241q-166 1 -270.5 116.5t-104.5 365.5v602q0 251 104.5 367t270.5 116t270.5 -116t104.5 -367v-602zM716 471v594q0 188 -54.5 258t-150.5 70t-149.5 -70t-53.5 -258v-594q0 -197 53.5 -266.5t150.5 -69.5q95 0 149.5 70 t54.5 266z" />
<glyph unicode="R" d="M531 696h-177v-696h-170v1526h333q203 0 302 -110t99 -295q0 -157 -63.5 -258t-157.5 -136l18 -28q190 -296 210 -631l4 -68h-170l-3 53q-19 320 -200 602zM354 840h162q118 0 172 70t54 212q0 140 -54 199.5t-172 59.5h-162v-541z" />
<glyph unicode="S" d="M917 356q0 -155 -103.5 -265t-286.5 -110q-288 0 -421 251l126 95q99 -192 294 -192q90 0 155 55.5t65 164.5q0 89 -112 195l-328 306q-137 129 -137 324q0 156 101 262t277 106q229 0 371 -209l-131 -103q-84 157 -239 157q-89 0 -148.5 -51t-59.5 -161q0 -114 90 -197 l326 -304q161 -152 161 -324z" />
<glyph unicode="T" d="M911 1381h-314v-1381h-170v1381h-314v145h798v-145z" />
<glyph unicode="U" d="M879 458q0 -247 -106.5 -362t-260.5 -115t-260.5 115t-106.5 362v1068h170v-1068q0 -189 56.5 -256t139.5 -67t140 67t57 256v1068h171v-1068z" />
<glyph unicode="V" d="M416 0l-189 703q-128 472 -128 738v85h171v-85q0 -220 96 -633l146 -617l146 617q96 413 96 633v85h170v-85q0 -266 -127 -738l-189 -703h-192z" />
<glyph unicode="W" d="M712 92l26 360q15 200 15 453v621h170v-368q0 -376 -54 -706l-71 -452h-160l-126 591l-126 -591h-160l-71 452q-54 330 -54 706v368h170v-621q0 -253 15 -453l26 -360l146 688h108z" />
<glyph unicode="X" d="M85 0l6 68q15 167 151 402l181 310l-160 276q-137 237 -153 403l-6 67h170l5 -53q16 -165 113 -334l120 -207l120 207q97 169 113 334l5 53h170l-6 -67q-16 -166 -153 -403l-160 -276l180 -310q137 -235 152 -402l6 -68h-170l-5 53q-14 164 -113 334l-139 240l-139 -240 q-99 -170 -113 -334l-5 -53h-170z" />
<glyph unicode="Y" d="M597 0h-170v650l-164 300q-159 289 -159 506v70h170v-70q0 -192 118 -424l120 -235l120 235q118 232 118 424v70h170v-70q0 -217 -159 -506l-164 -300v-650z" />
<glyph unicode="Z" d="M660 1164q55 97 55 217h-537v145h707v-145q0 -159 -87 -310l-405 -711q-55 -98 -55 -215h557v-145h-727v145q0 155 87 309z" />
<glyph unicode="[" d="M844 -132h-530v1790h530v-151h-359v-1488h359v-151z" />
<glyph unicode="\" d="M270 1526l639 -1526h-156l-639 1526h156z" />
<glyph unicode="]" d="M710 -132h-530v151h359v1488h-359v151h530v-1790z" />
<glyph unicode="^" d="M922 601h-182l-229 698l-236 -698h-174l321 925h176z" />
<glyph unicode="_" d="M1035 -213h-1046v145h1046v-145z" />
<glyph unicode="`" d="M301 1526h229l212 -572h-161z" />
<glyph unicode="a" d="M854 0h-170v128q-108 -147 -273 -147q-139 0 -224.5 95t-85.5 239q0 148 107 248t314 100h162v122q0 214 -203 214q-150 0 -224 -132l-129 96q134 190 354 190q163 0 267.5 -93t104.5 -275v-785zM684 266v260h-162q-122 0 -184 -57t-62 -154q0 -180 177 -180 q139 0 231 131z" />
<glyph unicode="b" d="M908 488q0 -271 -97 -389t-232 -118q-174 0 -263 155v-136h-170v1526h170v-531q89 158 263 158q135 0 232 -119t97 -390v-156zM733 488v156q0 198 -50 276.5t-146 78.5q-169 0 -221 -226v-413q53 -225 221 -225q96 0 146 78t50 275z" />
<glyph unicode="c" d="M939 188q-130 -207 -372 -207q-174 0 -286 124t-112 392v140q0 267 112 391.5t286 124.5q242 0 372 -209l-138 -87q-84 142 -224 142q-108 0 -172.5 -72t-64.5 -290v-140q0 -218 64.5 -290t172.5 -72q140 0 224 141z" />
<glyph unicode="d" d="M116 644q0 271 97 390t232 119q174 0 263 -158v531h170v-1526h-170v136q-89 -155 -263 -155q-135 0 -232 118t-97 389v156zM291 488q0 -197 50 -275t146 -78q168 0 221 225v403q-52 236 -221 236q-96 0 -146 -78.5t-50 -276.5v-156z" />
<glyph unicode="e" d="M893 532h-593v-34q0 -219 64.5 -291t173.5 -72q140 0 223 141l138 -88q-130 -207 -372 -207q-173 0 -285 124t-112 393v137q0 269 112 393.5t270 124.5q168 0 274.5 -115t106.5 -374v-132zM723 682q0 173 -59.5 245t-151.5 72q-88 0 -150 -72t-62 -245h423z" />
<glyph unicode="f" d="M809 1306q-40 86 -148 86q-71 0 -110.5 -45.5t-39.5 -163.5v-114h381v-145h-381v-924h-171v924h-190v145h190v104q0 193 90 283.5t220 90.5q200 0 287 -138z" />
<glyph unicode="g" d="M954 997h-59l-92 9q76 -93 76 -189q0 -131 -95 -218t-260 -87h-112q-81 -53 -81 -102q0 -51 32 -75.5t106 -24.5h94q212 0 306.5 -90t94.5 -227q0 -154 -120.5 -254.5t-317.5 -100.5q-206 0 -313 93t-107 226q0 173 175 262q-129 54 -129 165q0 112 137 190 q-140 94 -140 261q0 139 99 226t277 87q52 0 253 -16h176v-135zM715 836q0 68 -50 119.5t-150 51.5q-102 0 -151.5 -48.5t-49.5 -125.5q0 -88 52 -134t146 -46q102 0 152.5 47.5t50.5 135.5zM789 -7q0 75 -49.5 119t-176.5 44h-68q-116 0 -165 -52.5t-49 -134.5 q0 -85 64 -131.5t169 -46.5q275 0 275 202z" />
<glyph unicode="h" d="M879 0h-170v732q0 152 -46 209.5t-126 57.5q-168 0 -222 -233v-766h-170v1526h170v-529q109 156 264 156q126 0 213 -93.5t87 -317.5v-742z" />
<glyph unicode="i" d="M621 1516q0 -54 -37.5 -92.5t-93.5 -38.5t-93.5 38.5t-37.5 92.5t37.5 92.5t93.5 38.5t93.5 -38.5t37.5 -92.5zM878 0h-714v145h272v842h-195v145h366v-987h271v-145z" />
<glyph unicode="j" d="M730 1516q0 -54 -37.5 -92.5t-92.5 -38.5q-57 0 -94 38.5t-37 92.5t37 92.5t94 38.5q55 0 92.5 -38.5t37.5 -92.5zM545 87v900h-194v145h365v-1045q0 -211 -104.5 -330t-273.5 -119q-190 0 -328 159l117 110q82 -115 200 -115q100 0 159 67.5t59 227.5z" />
<glyph unicode="k" d="M937 0h-170q-8 125 -123 291l-169 242l-126 -154v-379h-170v1526h170v-938l250 308q125 154 128 236h170l-2 -37q-5 -89 -169 -289l-136 -167l176 -255q161 -233 168 -344z" />
<glyph unicode="l" d="M869 0h-714v145h272v1236h-194v145h365v-1381h271v-145z" />
<glyph unicode="m" d="M926 0h-139v855q0 145 -85 145q-75 0 -121 -112v-888h-138v855q-2 145 -68 145q-85 0 -137 -112v-888h-140v1132h140v-111q76 132 188 132q101 0 139 -132q71 132 180 132q181 0 181 -290v-863z" />
<glyph unicode="n" d="M879 0h-170v734q0 147 -46 204.5t-126 57.5q-168 0 -222 -230v-766h-170v1132h170v-145q109 166 264 166q126 0 213 -93.5t87 -315.5v-744z" />
<glyph unicode="o" d="M894 490q0 -260 -107 -384.5t-275 -124.5t-274.5 124.5t-106.5 384.5v154q0 260 106.5 384.5t274.5 124.5t275 -124.5t107 -384.5v-154zM724 490v154q0 201 -59.5 278t-152.5 77t-152 -77t-59 -278v-154q0 -201 59 -278t152 -77t152.5 77t59.5 278z" />
<glyph unicode="p" d="M908 487q0 -268 -102 -387t-227 -119q-174 0 -263 158v-492h-170v1485h170v-134q89 155 263 155q125 0 227 -118t102 -391v-157zM733 644q0 199 -55 277t-141 78q-168 0 -221 -233v-397q52 -234 221 -234q86 0 141 78.5t55 273.5v157z" />
<glyph unicode="q" d="M116 644q0 273 97 391t232 118q174 0 263 -157v136h170v-1485h-170v492q-89 -158 -263 -158q-135 0 -232 119t-97 387v157zM291 487q0 -195 50 -273.5t146 -78.5q169 0 221 234v397q-53 233 -221 233q-96 0 -146 -78t-50 -277v-157z" />
<glyph unicode="r" d="M951 941l-148 -66q-50 124 -169 124q-250 0 -250 -465v-534h-170v1132h170v-181q101 202 277 202q204 0 290 -212z" />
<glyph unicode="s" d="M516 131q106 0 160.5 50.5t54.5 122.5q0 99 -121 154l-218 100q-203 96 -203 274q0 139 100 230t258 91q227 0 348 -209l-139 -84q-63 142 -209 142q-87 0 -137.5 -44t-50.5 -109q0 -87 113 -141l206 -96q223 -103 223 -316q0 -126 -104 -220.5t-283 -94.5 q-250 0 -391 231l140 85q83 -166 253 -166z" />
<glyph unicode="t" d="M947 158q-119 -177 -318 -177q-132 0 -221.5 89.5t-89.5 264.5v652h-190v145h190v394h170v-394h382v-145h-382v-663q0 -93 40 -141t111 -48q118 0 179 117z" />
<glyph unicode="u" d="M879 0h-170v147q-109 -166 -264 -166q-126 0 -213 95t-87 341v715h170v-715q0 -165 46 -223.5t126 -58.5q168 0 222 221v776h170v-1132z" />
<glyph unicode="v" d="M610 0h-196l-196 592q-101 304 -111 459l-5 81h170l5 -81q9 -147 97 -435l138 -456l138 456q88 288 97 435l5 81h170l-5 -81q-10 -155 -111 -459z" />
<glyph unicode="w" d="M701 94l40 367q25 229 25 469v202h166v-150q0 -205 -58 -521l-84 -461h-160l-118 510l-118 -510h-160l-84 461q-58 316 -58 521v150h166v-202q0 -240 25 -469l40 -367l135 582h108z" />
<glyph unicode="x" d="M359 236q-80 -111 -88 -236h-170l2 39q7 112 128 282l186 263l-160 227q-121 169 -128 283l-1 38h170q7 -123 87 -236l127 -178l127 178q80 113 87 236h170l-1 -38q-7 -114 -128 -283l-161 -227l187 -263q121 -170 128 -282l2 -39h-170q-8 125 -88 236l-153 215z" />
<glyph unicode="y" d="M303 -183l130 338l-235 577q-84 208 -91 313l-5 87h170l5 -81q4 -69 78 -270l157 -428l157 422q73 204 78 276l5 81h170l-6 -87q-5 -93 -90 -313l-361 -937q-19 -47 -23 -111l-2 -37h-170l2 37q4 64 31 133z" />
<glyph unicode="z" d="M611 818q85 97 85 169h-518v145h688v-116q0 -153 -117 -291l-307 -370q-104 -123 -104 -210h557v-145h-727v116q0 169 138 333z" />
<glyph unicode="{" d="M871 -132h-159q-137 0 -234.5 97t-97.5 263v244q0 85 -59 145t-142 60h-27v173h26q83 0 142.5 60t59.5 143v243q0 167 97.5 264.5t234.5 97.5h159v-152h-159q-67 0 -114.5 -48t-47.5 -143v-257q0 -101 -54 -183q-57 -88 -152 -112q100 -32 155 -116q51 -78 51 -177v-259 q0 -96 47.5 -144t114.5 -48h159v-151z" />
<glyph unicode="|" d="M592 -362h-160v2246h160v-2246z" />
<glyph unicode="}" d="M871 677h-28q-82 0 -141 -60t-59 -145v-244q0 -166 -97.5 -263t-234.5 -97h-159v151h159q67 0 114.5 48t47.5 144v259q0 99 51 177q55 84 155 116q-95 24 -152 112q-54 82 -54 183v257q0 95 -47.5 143t-114.5 48h-159v152h159q137 0 234.5 -97.5t97.5 -264.5v-243 q0 -83 59.5 -143t141.5 -60h27v-173z" />
<glyph unicode="~" d="M975 826q-14 -434 -271 -434q-104 0 -177 80l-126 143q-48 54 -89 54q-99 0 -109 -279h-155q14 434 271 434q103 0 171 -76l135 -150q45 -51 86 -51q99 0 109 279h155z" />
<glyph unicode="&#xa0;" />
<glyph unicode="&#xa2;" d="M939 188q-113 -176 -289 -200v-192h-171v192q-310 73 -310 509v140q0 436 310 508v200h171v-199q175 -25 289 -202l-138 -87q-84 142 -224 142q-108 0 -172.5 -72t-64.5 -290v-140q0 -218 64.5 -290t172.5 -72q140 0 224 141z" />
<glyph unicode="&#xa3;" d="M946 0h-870v152q216 7 193 363l-14 208h-179v151h169l-14 215q-14 229 90 344t257 115q222 0 354 -209l-129 -90q-74 137 -224 137q-82 0 -135 -61t-42 -229l14 -222h291v-151h-281l13 -197q19 -296 -132 -374h639v-152z" />
<glyph unicode="&#xa4;" d="M160 674q0 98 51 181l-179 181l119 121l180 -182q82 50 180 50t181 -50l181 182l119 -121l-181 -182q51 -82 51 -180q0 -97 -51 -179l181 -182l-119 -122l-181 183q-83 -50 -181 -50t-180 49l-180 -182l-119 122l179 181q-51 82 -51 180zM325 674q0 -89 53.5 -142.5 t132.5 -53.5t132.5 53.5t53.5 142.5t-53.5 142.5t-132.5 53.5t-132.5 -53.5t-53.5 -142.5z" />
<glyph unicode="&#xa5;" d="M597 0h-170v271h-289v150h289v183h-289v149h232l-107 197q-159 286 -159 506v70h170v-70q0 -192 118 -424l120 -235l120 235q118 232 118 424v70h170v-70q0 -220 -159 -506l-108 -197h233v-149h-289v-183h289v-150h-289v-271z" />
<glyph unicode="&#xa6;" d="M592 985h-160v899h160v-899zM592 -362h-160v897h160v-897z" />
<glyph unicode="&#xa7;" d="M129 -159l126 95q80 -144 237 -144q90 0 149.5 47t59.5 136q0 78 -87 159l-291 275q-138 129 -138 324q0 157 104 256q-60 101 -60 230q0 127 91.5 228t266.5 101q210 0 333 -190l-133 -89q-72 124 -199 124q-89 0 -138.5 -46.5t-49.5 -126.5q0 -114 90 -197l282 -258 q160 -152 160 -324q0 -159 -120 -274q60 -80 60 -192q0 -127 -98.5 -232t-280.5 -105q-241 0 -364 203zM707 293q54 56 54 147q0 89 -112 195l-253 239q-40 -50 -40 -140q0 -114 90 -197z" />
<glyph unicode="&#xa8;" d="M810 1416q0 -45 -32.5 -78.5t-80.5 -33.5q-47 0 -78.5 33.5t-31.5 78.5t31.5 77.5t78.5 32.5q48 0 80.5 -32.5t32.5 -77.5zM436 1416q0 -45 -32 -78.5t-79 -33.5q-48 0 -80 33.5t-32 78.5t32 77.5t80 32.5q47 0 79 -32.5t32 -77.5z" />
<glyph unicode="&#xa9;" d="M651 895h-152q0 90 -38 129t-93 39q-56 0 -94.5 -39t-38.5 -144v-241q0 -105 38.5 -143.5t94.5 -38.5q55 0 93 38.5t38 124.5h152q0 -137 -78 -215.5t-205 -78.5q-118 0 -201.5 83.5t-83.5 229.5v241q0 147 83.5 230.5t201.5 83.5q127 0 205 -78.5t78 -220.5zM83 262 q148 -152 372 -152q163 0 265 102t102 303v497q0 202 -102 304t-265 102q-224 0 -372 -152v161q142 121 375 121q225 0 370.5 -145.5t145.5 -390.5v-497q0 -245 -145.5 -389.5t-370.5 -144.5q-233 0 -375 120v161z" />
<glyph unicode="&#xaa;" d="M800 651h-161v76q-70 -91 -179 -91q-107 0 -171.5 73.5t-64.5 199.5q0 130 80 206.5t265 76.5h70v57q0 161 -128 161q-103 0 -154 -114l-125 85q100 167 279 167q131 0 210 -71t79 -229v-597zM639 846v219h-70q-106 0 -149.5 -42.5t-43.5 -113.5q0 -136 115 -136 q93 0 148 73zM235 403h570v-145h-570v145z" />
<glyph unicode="&#xab;" d="M955 120h-173l-320 462l320 461h173l-312 -461zM562 120h-173l-320 462l320 461h173l-312 -461z" />
<glyph unicode="&#xac;" d="M927 355h-170v390h-700v149h870v-539z" />
<glyph unicode="&#xad;" d="M787 534h-551v145h551v-145z" />
<glyph unicode="&#xae;" d="M651 889q0 -163 -143 -236l135 -307h-164l-111 279h-133v-279h-152v828h246q175 0 248.5 -79t73.5 -206zM499 889q0 76 -38 114.5t-112 38.5h-114v-296h114q74 0 112 38.5t38 104.5zM83 262q148 -152 372 -152q163 0 265 102t102 303v497q0 202 -102 304t-265 102 q-224 0 -372 -152v161q142 121 375 121q225 0 370.5 -145.5t145.5 -390.5v-497q0 -245 -145.5 -389.5t-370.5 -144.5q-233 0 -375 120v161z" />
<glyph unicode="&#xaf;" d="M787 1397h-551v129h551v-129z" />
<glyph unicode="&#xb0;" d="M833 1227q0 -133 -94.5 -227.5t-227.5 -94.5t-227 94.5t-94 227.5t94 227t227 94t227.5 -94t94.5 -227zM672 1227q0 63 -44 111.5t-117 48.5q-72 0 -116 -48.5t-44 -111.5q0 -64 44 -113t116 -49t116.5 49.5t44.5 112.5z" />
<glyph unicode="&#xb1;" d="M938 897h-351v-353h-150v353h-351v145h351v354h150v-354h351v-145zM938 232h-852v145h852v-145z" />
<glyph unicode="&#xb2;" d="M768 650h-497v51q0 154 152 324l139 154q62 67 62 145q0 44 -28 70.5t-79 26.5q-101 0 -141 -109l-119 70q91 166 260 166q115 0 183 -64.5t68 -163.5q0 -113 -95 -219l-139 -153q-103 -115 -111 -172h345v-126z" />
<glyph unicode="&#xb3;" d="M787 909q0 -111 -76.5 -190.5t-192.5 -79.5q-175 0 -271 172l108 75q52 -122 162 -122q57 0 91.5 41t34.5 114t-39 105.5t-87 32.5h-71v126h71q47 0 77 28t30 93q0 56 -30 86t-77 30q-111 0 -158 -113l-107 73q101 168 266 168q106 0 178 -68t72 -172q0 -137 -115 -188 q134 -53 134 -211z" />
<glyph unicode="&#xb4;" d="M443 954h-161l212 572h229z" />
<glyph unicode="&#xb5;" d="M884 0h-170v128q-109 -147 -245 -147q-110 0 -159 73v-407h-170v1485h170v-796q0 -87 46 -145.5t126 -58.5q139 0 232 129v871h170v-1132z" />
<glyph unicode="&#xb6;" d="M871 0h-118v1526h118v-1526zM623 0h-119v702h-37q-154 0 -263 110.5t-109 266.5v71q0 155 109 265.5t263 110.5h156v-1526z" />
<glyph unicode="&#xb7;" d="M709 725q0 -78 -56.5 -137t-141.5 -59q-86 0 -140.5 59t-54.5 137t54.5 138t140.5 60q85 0 141.5 -60.5t56.5 -137.5z" />
<glyph unicode="&#xb8;" d="M351 -245q168 -15 168 55q0 58 -98 51l46 91q206 -8 206 -140q0 -82 -65 -128t-257 -46v117z" />
<glyph unicode="&#xb9;" d="M650 641h-144v713l-195 -157l-70 107l277 222h132v-885z" />
<glyph unicode="&#xba;" d="M796 952q0 -148 -80.5 -232t-206.5 -84q-125 0 -206.5 84t-81.5 232v280q0 147 81.5 231.5t206.5 84.5q126 0 206.5 -84.5t80.5 -231.5v-280zM644 931v321q0 77 -39.5 117.5t-95.5 40.5t-96 -41t-40 -117v-321q0 -77 40 -117.5t96 -40.5t95.5 40t39.5 118zM227 403h575 v-145h-575v145z" />
<glyph unicode="&#xbb;" d="M955 582l-320 -462h-173l312 462l-312 461h173zM562 582l-321 -462h-172l312 462l-312 461h172z" />
<glyph unicode="&#xbc;" d="M912 704h-802v125h802v-125zM771 -101h-95v-199h-144v199h-341v154l333 489h152v-521h95v-122zM532 21v334l-227 -334h227zM616 966h-144v670l-174 -142l-71 108l257 206h132v-842z" />
<glyph unicode="&#xbd;" d="M912 704h-802v125h802v-125zM616 966h-144v670l-174 -142l-71 108l257 206h132v-842zM768 -290h-497v51q0 154 152 305l139 137q62 61 62 136q0 44 -28 70.5t-79 26.5q-101 0 -141 -109l-119 70q91 165 260 165q115 0 183 -64t68 -164q0 -118 -95 -209l-139 -137 q-103 -102 -111 -152h345v-126z" />
<glyph unicode="&#xbe;" d="M912 704h-802v125h802v-125zM771 -101h-95v-199h-144v199h-341v154l333 489h152v-521h95v-122zM532 21v334l-227 -334h227zM768 1210q0 -101 -77 -180.5t-192 -79.5q-166 0 -261 172l107 75q52 -122 153 -122q56 0 91 36.5t35 108.5q0 57 -34.5 89.5t-91.5 32.5h-61v126 h61q47 0 77 28t30 83q0 47 -30 77t-77 30q-102 0 -148 -113l-108 73q101 167 257 167q106 0 178 -67.5t72 -162.5q0 -118 -115 -178q134 -62 134 -195z" />
<glyph unicode="&#xd7;" d="M809 203l-297 298l-298 -298l-106 106l298 298l-298 297l106 106l298 -298l297 298l106 -106l-297 -297l297 -298z" />
<glyph unicode="&#xf7;" d="M938 534h-852v145h852v-145zM641 292q0 -55 -38 -93t-92 -38t-92 38t-38 93q0 54 38 91.5t92 37.5t92 -37.5t38 -91.5zM642 924q0 -55 -38 -93t-92 -38t-92 38t-38 93q0 54 38 91.5t92 37.5t92 -37.5t38 -91.5z" />
<glyph unicode="&#x2c6;" d="M794 1270h-150l-132 137l-133 -137h-150l206 256h153z" />
<glyph unicode="&#x2c7;" d="M588 1270h-153l-206 256h150l133 -137l132 137h150z" />
<glyph unicode="&#x2d8;" d="M781 1427q-97 -142 -269 -142t-269 142v167h29q95 -170 240 -170q142 0 240 170h29v-167z" />
<glyph unicode="&#x2d9;" d="M642 1396q0 -54 -38.5 -92.5t-92.5 -38.5t-92 38.5t-38 92.5q0 55 38 92.5t92 37.5t92.5 -37.5t38.5 -92.5z" />
<glyph unicode="&#x2da;" d="M725 1372q0 -73 -50 -123.5t-163 -50.5t-163.5 50.5t-50.5 123.5q0 72 50.5 123t163.5 51t163 -51t50 -123zM606 1372q0 29 -21.5 46t-72.5 17q-52 0 -73 -17t-21 -46t21 -46.5t73 -17.5q51 0 72.5 17.5t21.5 46.5z" />
<glyph unicode="&#x2db;" d="M675 -356q-149 -6 -231.5 51.5t-82.5 148.5q0 97 114 156h170q-126 -53 -126 -139q0 -47 45 -73t111 -19v-125z" />
<glyph unicode="&#x2dc;" d="M866 1478q-78 -189 -230 -189q-68 0 -142.5 56.5t-110.5 56.5q-62 0 -142 -108l-84 71q102 181 235 181q58 0 130.5 -57.5t122.5 -57.5q62 0 121 106z" />
<glyph unicode="&#x2dd;" d="M904 1526l-228 -256h-158l182 256h204zM563 1526l-227 -256h-159l183 256h203z" />
<glyph unicode="&#x30f;" d="M324 1526l182 -256h-158l-228 256h204zM664 1526l183 -256h-159l-227 256h203z" />
<glyph unicode="&#x311;" d="M781 1285h-29q-98 170 -240 170q-145 0 -240 -170h-29v167q97 142 269 142t269 -142v-167z" />
<glyph unicode="&#x315;" d="M1048 1526l-67 -352h-140l43 352h164z" />
<glyph unicode="&#x384;" d="M757 1640l-251 -434h-139l169 434h221z" />
<glyph unicode="&#x385;" d="M748 1640l-251 -434h-120l169 434h202zM303 1301q0 -47 -30 -75t-72 -28q-43 0 -72.5 28t-29.5 75q0 48 29.5 76t72.5 28q42 0 72 -28t30 -76zM923 1301q0 -47 -29.5 -75t-72.5 -28q-42 0 -72 28t-30 75q0 48 30 76t72 28q43 0 72.5 -28t29.5 -76z" />
<glyph unicode="&#x3a9;" d="M512 1386q-87 0 -145.5 -59.5t-58.5 -226.5v-546q0 -245 133 -340v-214h-315v150h201q-190 117 -190 453v434q0 289 109 400t266 111q156 0 265.5 -111t109.5 -400v-434q0 -336 -191 -453h202v-150h-316v214q134 95 134 340v546q0 167 -58.5 226.5t-145.5 59.5z" />
<glyph unicode="&#x3c0;" d="M942 981h-141v-766q0 -60 42 -60h99v-155h-99q-213 0 -213 235v746h-246v-981h-171v981h-132v151h861v-151z" />
<glyph unicode="&#x2010;" d="M811 535h-598v170h598v-170z" />
<glyph unicode="&#x2013;" d="M916 534h-809v145h809v-145z" />
<glyph unicode="&#x2014;" d="M987 534h-951v145h951v-145z" />
<glyph unicode="&#x2018;" d="M355 1104q0 156 165 422h143q-104 -163 -138 -296q70 -2 115.5 -46.5t45.5 -110.5q0 -72 -43.5 -118t-113.5 -46q-78 0 -126 53.5t-48 141.5z" />
<glyph unicode="&#x2019;" d="M686 1350q0 -155 -164 -422h-143q103 164 138 297q-71 2 -116.5 46.5t-45.5 109.5q0 73 43.5 119t113.5 46q78 0 126 -54t48 -142z" />
<glyph unicode="&#x201a;" d="M686 70q0 -156 -164 -423h-143q103 164 138 297q-71 2 -116.5 46.5t-45.5 109.5q0 73 43.5 119t113.5 46q78 0 126 -54t48 -141z" />
<glyph unicode="&#x201c;" d="M117 1104q0 156 164 422h143q-103 -163 -138 -296q70 -2 115.5 -46.5t45.5 -110.5q0 -72 -43.5 -118t-112.5 -46q-78 0 -126 53.5t-48 141.5zM583 1104q0 156 165 422h143q-104 -163 -138 -296q70 -2 115.5 -46.5t45.5 -110.5q0 -72 -43.5 -118t-113.5 -46 q-78 0 -126 53.5t-48 141.5z" />
<glyph unicode="&#x201d;" d="M907 1350q0 -155 -164 -422h-143q103 164 138 297q-70 2 -115.5 46.5t-45.5 109.5q0 73 43.5 119t112.5 46q78 0 126 -54t48 -142zM440 1350q0 -155 -164 -422h-143q104 164 138 297q-70 2 -115.5 46.5t-45.5 109.5q0 73 43.5 119t113.5 46q78 0 125.5 -54t47.5 -142z " />
<glyph unicode="&#x201e;" d="M907 70q0 -156 -164 -423h-143q103 164 138 297q-70 2 -115.5 46.5t-45.5 109.5q0 73 43.5 119t112.5 46q78 0 126 -54t48 -141zM440 70q0 -156 -164 -423h-143q104 164 138 297q-70 2 -115.5 46.5t-45.5 109.5q0 73 43.5 119t113.5 46q78 0 125.5 -54t47.5 -141z" />
<glyph unicode="&#x2020;" d="M966 1004h-369v-1004h-170v1004h-370v149h370v373h170v-373h369v-149z" />
<glyph unicode="&#x2021;" d="M967 354h-370v-354h-170v354h-369v148h369v522h-370v150h370v352h170v-352h369v-150h-369v-522h370v-148z" />
<glyph unicode="&#x2022;" d="M848 822q0 -139 -99 -238t-238 -99t-237.5 99t-98.5 238t98.5 237.5t237.5 98.5t238 -98.5t99 -237.5z" />
<glyph unicode="&#x2026;" d="M917 85q0 -43 -31.5 -73.5t-74.5 -30.5t-74 30.5t-31 73.5t31 73.5t74 30.5t74.5 -30.5t31.5 -73.5zM616 85q0 -43 -31 -73.5t-74 -30.5t-73.5 30.5t-30.5 73.5t30.5 73.5t73.5 30.5t74 -30.5t31 -73.5zM317 85q0 -43 -31.5 -73.5t-74.5 -30.5t-74 30.5t-31 73.5t31 73.5 t74 30.5t74.5 -30.5t31.5 -73.5z" />
<glyph unicode="&#x2030;" d="M1015 186q0 -92 -43.5 -148.5t-100.5 -56.5q-58 0 -100.5 56.5t-42.5 148.5q0 91 42.5 148.5t100.5 57.5q57 0 100.5 -58t43.5 -148zM826 1526l-640 -1526h-165l641 1526h164zM653 186q0 -92 -44 -148.5t-100 -56.5q-58 0 -100.5 56.5t-42.5 148.5q0 91 42.5 148.5 t100.5 57.5q56 0 100 -58t44 -148zM331 1340q0 -92 -43.5 -148.5t-100.5 -56.5q-58 0 -100.5 56.5t-42.5 148.5q0 91 42.5 148.5t100.5 57.5q57 0 100.5 -58t43.5 -148z" />
<glyph unicode="&#x2039;" d="M820 120h-199l-417 462l417 461h199l-418 -461z" />
<glyph unicode="&#x203a;" d="M622 582l-418 461h199l417 -461l-417 -462h-199z" />
<glyph unicode="&#x20ac;" d="M934 187q-131 -206 -354 -206q-154 0 -263 110t-109 285v151h-119v150h119v183h-119v149h119v142q0 175 109 286t263 111q223 0 354 -209l-129 -90q-75 137 -224 137q-84 0 -143 -60t-59 -182v-135h416v-149h-416v-183h416v-150h-416v-143q0 -123 59 -183t143 -60 q149 0 224 136z" />
<glyph unicode="&#x2122;" d="M979 686h-125v557l-94 -282h-47l-95 282v-557h-124v840h124l118 -351l118 351h125v-840zM422 1421h-126v-735h-125v735h-126v105h377v-105z" />
<glyph unicode="&#x2190;" d="M48 665l400 400v-328h515v-143h-515v-329z" />
<glyph unicode="&#x2191;" d="M912 1207h-329v-515h-143v515h-328l400 400z" />
<glyph unicode="&#x2192;" d="M576 265v329h-515v143h515v328l400 -400z" />
<glyph unicode="&#x2193;" d="M112 319h329v515h143v-515h328l-400 -400z" />
<glyph unicode="&#x2194;" d="M48 665l331 400v-328h266v328l331 -400l-331 -400v329h-266v-329z" />
<glyph unicode="&#x2195;" d="M112 323h328v884h-328l400 400l400 -400h-329v-884h329l-400 -400z" />
<glyph unicode="&#x2196;" d="M144 1526h565l-234 -231l454 -453l-101 -101l-453 452l-231 -232v565z" />
<glyph unicode="&#x2197;" d="M880 961l-231 232l-453 -452l-101 101l454 453l-234 231h565v-565z" />
<glyph unicode="&#x2198;" d="M860 0h-565l234 231l-454 453l101 101l453 -452l231 232v-565z" />
<glyph unicode="&#x2199;" d="M164 565l231 -232l453 452l101 -101l-454 -453l234 -231h-565v565z" />
<glyph unicode="&#x21a9;" d="M420 1272h77q208 0 326.5 -122t118.5 -294t-118.5 -294t-326.5 -122h-58v-329l-400 400l400 400v-329h58q142 0 219 76t77 198t-77 197.5t-219 75.5h-77v143z" />
<glyph unicode="&#x21aa;" d="M604 1129h-77q-142 0 -219 -75.5t-77 -197.5t77 -198t219 -76h58v329l400 -400l-400 -400v329h-58q-208 0 -326.5 122t-118.5 294t118.5 294t326.5 122h77v-143z" />
<glyph unicode="&#x21b3;" d="M145 1526h143v-1076h296v328l400 -400l-400 -400v329h-439v1219z" />
<glyph unicode="&#x21b5;" d="M879 595h-439v-329l-400 400l400 400v-328h296v788h143v-931z" />
<glyph unicode="&#x21e0;" d="M35 666l400 400v-800zM892 762q39 0 68 -27.5t29 -68.5t-29 -69t-68 -28q-40 0 -68 28t-28 69t28 68.5t68 27.5zM627 762q40 0 68 -27.5t28 -68.5t-28 -69t-68 -28q-39 0 -68 28t-29 69t29 68.5t68 27.5z" />
<glyph unicode="&#x21e1;" d="M512 1607l400 -400h-800zM608 750q0 -39 -27.5 -68t-68.5 -29t-69 29t-28 68q0 40 28 68t69 28t68.5 -28t27.5 -68zM608 1015q0 -40 -27.5 -68t-68.5 -28t-69 28t-28 68q0 39 28 68t69 29t68.5 -29t27.5 -68z" />
<glyph unicode="&#x21e2;" d="M589 266v800l400 -400zM132 762q40 0 68 -27.5t28 -68.5t-28 -69t-68 -28q-39 0 -68 28t-29 69t29 68.5t68 27.5zM397 762q39 0 68 -27.5t29 -68.5t-29 -69t-68 -28q-40 0 -68 28t-28 69t28 68.5t68 27.5z" />
<glyph unicode="&#x21e3;" d="M512 -77l-400 400h800zM416 780q0 39 27.5 68t68.5 29t69 -29t28 -68q0 -40 -28 -68t-69 -28t-68.5 28t-27.5 68zM416 515q0 40 27.5 68t68.5 28t69 -28t28 -68q0 -39 -28 -68t-69 -29t-68.5 29t-27.5 68z" />
<glyph unicode="&#x21e7;" d="M512 1367l-266 -358h124v-274h284v274h124zM512 1606l547 -734h-262v-280h-570v280h-262z" />
<glyph unicode="&#x21ea;" d="M512 1332l-297 -400h142v-330h312v330h140zM512 1549l539 -724h-264v-342h-550v342h-264zM787 0h-550v365h550v-365zM669 246h-312v-127h312v127z" />
<glyph unicode="&#x2200;" d="M279 1441q0 -103 28 -272h409q29 169 29 272v85h170v-85q0 -219 -131 -738l-176 -703h-192l-176 703q-131 519 -131 738v85h170v-85zM639 798q29 122 50 226h-355q21 -104 51 -226l127 -528z" />
<glyph unicode="&#x2201;" d="M947 66q-142 -245 -388 -245q-166 0 -280 111t-114 409v526q0 289 114 405t278 116q257 0 380 -248l-139 -84q-76 177 -240 177q-95 0 -158.5 -69.5t-63.5 -296.5v-526q0 -227 63.5 -296.5t158.5 -69.5q164 0 250 185z" />
<glyph unicode="&#x2202;" d="M704 745q-71 93 -215 93q-147 0 -207 -167t-60 -328q0 -90 31 -133q53 -75 141 -75q204 0 270 377zM730 893q30 171 30 276q0 94 -23 136q-51 88 -159 88q-131 0 -223 -151l-121 97q158 209 363 209q183 0 275 -149q52 -86 52 -251q0 -124 -29 -294l-46 -257 q-48 -275 -126 -410q-119 -206 -345 -206q-167 0 -260 135q-63 90 -63 236q0 227 101 434t320 207q152 0 254 -100z" />
<glyph unicode="&#x2203;" d="M131 152h534v571h-395v151h395v502h-534v150h704v-1526h-704v152z" />
<glyph unicode="&#x2204;" d="M706 1622l-23 -96h152v-1526h-512l-27 -115h-146l27 115h-46v148h81l136 578h-164v144h199l120 511h-372v145h406l23 96h146zM670 148v578h-176l-137 -578h313zM670 870v511h-21l-121 -511h142z" />
<glyph unicode="&#x2205;" d="M790 1512l-60 -254q30 -23 56 -53q105 -121 105 -410v-266q0 -299 -104.5 -424t-271.5 -125q-44 0 -85 10l-50 -215h-146l66 280q-26 22 -51 50q-109 125 -109 424v266q0 289 104.5 410t270.5 121q43 0 83 -8l46 194h146zM514 132q96 0 150.5 79t54.5 318v266 q0 183 -35 268l-219 -925q23 -6 49 -6zM311 529q0 -192 34 -281l218 920q-23 6 -49 6q-95 0 -149 -74.5t-54 -304.5v-266z" />
<glyph unicode="&#x2206;" d="M1009 0h-994l409 1526h176zM782 152l-270 1104l-271 -1104h541z" />
<glyph unicode="&#x2207;" d="M600 0h-176l-409 1526h994zM241 1375l271 -1105l269 1105h-540z" />
<glyph unicode="&#x2208;" d="M242 583q21 -181 159.5 -309.5t370.5 -128.5h117v-145h-117q-309 0 -506 189.5t-197 463.5q0 277 197 465t506 188h117v-145h-117q-232 0 -370.5 -127t-159.5 -306h647v-145h-647z" />
<glyph unicode="&#x2209;" d="M884 1532l-68 -226h73v-145h-116l-130 -433h246v-145h-290l-111 -373q118 -65 284 -65h117v-145h-117q-184 0 -328 66l-87 -292h-136l108 361q-33 25 -63 54q-197 190 -197 464q0 277 197 465q166 159 413 183l69 231h136zM507 728l126 420q-138 -28 -232 -114 q-138 -127 -159 -306h265zM242 583q19 -165 135 -287l86 287h-221z" />
<glyph unicode="&#x220a;" d="M889 311v-156h-311q-245 0 -377 132.5t-132 318.5q0 187 132 319t377 132h311v-155h-311q-273 0 -337 -221h648v-150h-648q64 -220 337 -220h311z" />
<glyph unicode="&#x220b;" d="M135 583v145h647q-21 179 -159.5 306t-370.5 127h-117v145h117q309 0 506 -188t197 -465t-197 -465t-506 -188h-117v145h117q232 0 370.5 128.5t159.5 309.5h-647z" />
<glyph unicode="&#x220c;" d="M135 583v145h317l108 354q-125 79 -308 79h-117v145h117q199 0 352 -79l89 294h136l-112 -368q21 -16 41 -35q197 -188 197 -465t-197 -465q-158 -151 -388 -181l-68 -223h-136l65 216h-96v145h117h23l133 438h-273zM417 164q120 30 205 109q139 129 160 310h-238z M782 728q-18 147 -115 260l-79 -260h194z" />
<glyph unicode="&#x220d;" d="M446 311q273 0 336 220h-647v150h647q-63 221 -336 221h-311v155h311q245 0 377 -132t132 -319q0 -186 -132 -318.5t-377 -132.5h-311v156h311z" />
<glyph unicode="&#x220e;" d="M261 1132h502v-1132h-502v1132z" />
<glyph unicode="&#x220f;" d="M942 1225h-122v-1381h-171v1381h-275v-1381h-171v1381h-122v150h861v-150z" />
<glyph unicode="&#x2210;" d="M942 -157h-861v151h122v1381h171v-1381h275v1381h171v-1381h122v-151z" />
<glyph unicode="&#x2211;" d="M537 637l-279 389q-73 100 -73 198v151h712v-151h-542q0 -43 59 -120l315 -458v-35l-293 -417q-91 -122 -91 -201h562v-150h-732v142q0 133 117 299z" />
<glyph unicode="&#x2212;" d="M938 534h-852v145h852v-145z" />
<glyph unicode="&#x2213;" d="M938 1228h-852v145h852v-145zM938 534h-351v-353h-150v353h-351v145h351v354h150v-354h351v-145z" />
<glyph unicode="&#x2214;" d="M642 1305q0 -54 -38 -91.5t-92 -37.5t-92 37.5t-38 91.5q0 55 38 93t92 38t92 -38t38 -93zM938 534h-351v-353h-150v353h-351v145h351v354h150v-354h351v-145z" />
<glyph unicode="&#x2215;" d="M1010 1526l-821 -1879h-175l821 1879h175z" />
<glyph unicode="&#x2216;" d="M189 1526l821 -1879h-175l-821 1879h175z" />
<glyph unicode="&#x2217;" d="M507 475l-197 -297l-130 92l220 282l-344 98l49 152l333 -123l-14 361h165l-13 -361l333 123l49 -152l-344 -98l219 -282l-129 -93z" />
<glyph unicode="&#x2218;" d="M799 612q0 -124 -87.5 -206t-200.5 -82t-200 82t-87 206q0 126 87 206.5t200 80.5t200.5 -80.5t87.5 -206.5zM644 611q0 59 -40.5 96.5t-92.5 37.5t-92 -37.5t-40 -96.5q0 -57 40 -94.5t92 -37.5t92.5 37.5t40.5 94.5z" />
<glyph unicode="&#x2219;" d="M738 612q0 -98 -69 -162.5t-158 -64.5t-157.5 64.5t-68.5 162.5q0 99 68.5 162.5t157.5 63.5t158 -63.5t69 -162.5z" />
<glyph unicode="&#x221a;" d="M1075 1831l-530 -1831h-170l-318 1109l165 47l238 -890l447 1565h168z" />
<glyph unicode="&#x221b;" d="M544 983q0 -102 -71 -176t-178 -74q-162 0 -251 161l110 74q43 -119 130 -119q57 0 87 38t30 105q0 68 -34 98t-73 30h-66v116h66q38 0 64 26.5t26 86.5q0 52 -26 79.5t-74 27.5q-88 0 -128 -110l-107 73q93 155 246 155q98 0 164.5 -62.5t66.5 -159.5q0 -137 -124 -174 q142 -48 142 -195zM1094 1831l-530 -1831h-170l-171 598l143 41l113 -402l457 1594h158z" />
<glyph unicode="&#x221c;" d="M555 926h-77v-183h-142v183h-315v143l306 490h151v-510h77v-123zM336 1049v316l-196 -316h196zM1094 1831l-530 -1831h-170l-171 598l143 41l113 -402l457 1594h158z" />
<glyph unicode="&#x221d;" d="M500 612q-65 173 -147 173q-44 0 -66.5 -40t-22.5 -133q0 -92 22.5 -132.5t66.5 -40.5q82 0 147 173zM803 785q-82 0 -148 -173q66 -173 148 -173h109v-158h-109q-139 7 -225 194q-90 -194 -239 -194q-92 0 -160 79t-68 252t68 252t161 79q148 0 238 -194q86 186 225 193 h109v-157h-109z" />
<glyph unicode="&#x221e;" d="M521 475q-90 -194 -239 -194q-92 0 -160 79t-68 252t68 252t161 79q148 0 238 -194q90 194 237 194q93 0 161 -79t68 -252t-68 -252t-160 -79q-148 0 -238 194zM443 612q-65 173 -147 173q-44 0 -66.5 -40t-22.5 -133q0 -92 22.5 -132.5t66.5 -40.5q82 0 147 173z M598 612q66 -173 148 -173q43 0 66 40.5t23 132.5q0 93 -23 133t-66 40q-82 0 -148 -173z" />
<glyph unicode="&#x221f;" d="M173 1039h170v-616h594v-149h-764v765z" />
<glyph unicode="&#x2220;" d="M505 1097l157 -67l-259 -607h515v-149h-764z" />
<glyph unicode="&#x2221;" d="M636 425q-9 53 -29.5 103t-52.5 95q-33 46 -74.5 80t-88.5 57l-108 -335h353zM76 274l170 531q-49 7 -97 3l-16 161q27 2 38 2q70 0 125 -10l98 307l145 -48l-99 -305q72 -31 134 -80t111 -116q48 -67 76 -141.5t37 -152.5h141v-151h-141q-7 -54 -28 -121q-3 -10 -14 -36 l-148 63q18 45 26 94h-558z" />
<glyph unicode="&#x2222;" d="M316 227q46 17 86.5 42t75.5 58l-450 329l450 329q-71 68 -162 100l54 153q70 -25 130 -65t111 -92l169 124l89 -124l-169 -123q39 -67 60 -143t21 -159t-21 -159.5t-60 -143.5l169 -122l-89 -124l-169 123q-102 -105 -241 -155zM569 448q24 48 37 100t13 108t-13 108 t-37 99l-285 -207z" />
<glyph unicode="&#x2223;" d="M592 -353h-160v1879h160v-1879z" />
<glyph unicode="&#x2224;" d="M592 -353h-160v738l-317 -349l-111 101l428 472v917h160v-741l317 350l111 -101l-428 -472v-915z" />
<glyph unicode="&#x2225;" d="M422 -353h-160v1879h160v-1879zM762 -353h-160v1879h160v-1879z" />
<glyph unicode="&#x2226;" d="M115 36l-111 101l258 284v1105h160v-928l180 198v730h160v-553l147 162l111 -101l-258 -285v-1102h-160v926l-180 -199v-727h-160v551z" />
<glyph unicode="&#x2227;" d="M512 1477l512 -1477h-178l-334 989l-334 -989h-178z" />
<glyph unicode="&#x2228;" d="M0 1307h178l334 -989l334 989h178l-512 -1477z" />
<glyph unicode="&#x2229;" d="M221 0h-160v818q0 244 132.5 376.5t318.5 132.5t318.5 -132.5t132.5 -376.5v-818h-160v818q0 176 -84 262.5t-207 86.5t-207 -86.5t-84 -262.5v-818z" />
<glyph unicode="&#x222a;" d="M221 486q0 -176 84 -262.5t207 -86.5t207 86.5t84 262.5v821h160v-821q0 -244 -132.5 -376.5t-318.5 -132.5t-318.5 132.5t-132.5 376.5v821h160v-821z" />
<glyph unicode="&#x222b;" d="M595 1296v-1254q0 -200 -81.5 -297.5t-243.5 -97.5h-200v152h185q81 0 126 51t45 179v1254q0 200 81 297.5t245 97.5h199v-152h-185q-81 0 -126 -51t-45 -179z" />
<glyph unicode="&#x222c;" d="M365 1296v-1254q0 -200 -82 -297.5t-245 -97.5h-43v152h29q81 0 126 51t45 179v1254q0 200 81.5 297.5t244.5 97.5h44v-152h-29q-81 0 -126 -51t-45 -179zM849 1296v-1254q0 -200 -82 -297.5t-245 -97.5h-43v152h29q81 0 126 51t45 179v1254q0 200 81.5 297.5t244.5 97.5 h44v-152h-29q-82 0 -126.5 -51t-44.5 -179z" />
<glyph unicode="&#x222d;" d="M277 1296v-1254q0 -200 -65 -297.5t-218 -97.5h-15v152h10q62 0 99.5 51t37.5 179v1254q0 200 79.5 297.5t213.5 97.5h5v-152h-10q-62 0 -99.5 -51t-37.5 -179zM588 1296v-1254q0 -200 -65 -297.5t-218 -97.5h-15v152h10q62 0 99.5 51t37.5 179v1254q0 200 79 297.5 t214 97.5h4v-152h-9q-62 0 -99.5 -51t-37.5 -179zM896 1296v-1254q0 -200 -64.5 -297.5t-218.5 -97.5h-14v152h10q61 0 99 51t38 179v1254q0 200 79 297.5t213 97.5h5v-152h-9q-62 0 -100 -51t-38 -179z" />
<glyph unicode="&#x222e;" d="M595 1296v-306q312 -44 312 -313q0 -268 -312 -313v-322q0 -200 -81 -297.5t-244 -97.5h-160v152h145q81 0 126.5 51t45.5 179v335q-311 45 -311 313t311 313v293q0 200 81 297.5t245 97.5h159v-152h-146q-81 0 -126 -51t-45 -179zM752 677q0 143 -157 176v-352 q157 34 157 176zM270 677q0 -142 157 -176v352q-157 -34 -157 -176z" />
<glyph unicode="&#x222f;" d="M789 1296v-333q242 -91 242 -286t-242 -286v-349q0 -200 -81.5 -297.5t-245.5 -97.5h-23v152h9q81 0 126 51t45 179v324q-44 -8 -107 -8t-107 8v-311q0 -200 -81.5 -297.5t-244.5 -97.5h-44v152h29q81 0 126 51t45 179v362q-242 91 -242 286t242 286v320 q0 200 81.5 297.5t245.5 97.5h23v-152h-9q-81 0 -126 -51t-45 -179v-295q44 8 107 8q62 0 107 -8v282q0 200 81.5 297.5t244.5 97.5h64v-152h-29q-101 0 -146 -51t-45 -179zM512 861q-65 0 -107 -9v-350q42 -8 107 -8t107 8v350q-43 9 -107 9zM144 677q0 -77 91 -125v250 q-91 -48 -91 -125zM880 677q0 77 -91 125v-250q91 48 91 125z" />
<glyph unicode="&#x2230;" d="M298 1296v-315q63 12 140 16v286q0 200 79 297.5t213 97.5h5v-152h-10q-61 0 -99 -51t-38 -179v-299q76 -4 138 -16v302q0 200 79.5 297.5t213.5 97.5h5v-152h-10q-62 0 -99.5 -51t-37.5 -179v-361q163 -89 163 -258t-163 -258v-377q0 -200 -64.5 -297.5t-218.5 -97.5 h-14v152h9q62 0 99.5 51t37.5 179v344q-62 -11 -138 -15v-316q0 -200 -64.5 -297.5t-218.5 -97.5h-14v152h9q62 0 100 51t38 179v329q-78 3 -140 15v-331q0 -200 -65 -297.5t-219 -97.5h-14v152h10q61 0 99 51t38 179v390q-163 89 -163 258t163 258v348q0 200 79 297.5 t214 97.5h4v-152h-9q-62 0 -99.5 -51t-37.5 -179zM298 833v-311q59 -12 140 -16v343q-81 -4 -140 -16zM726 522v311q-58 12 -138 16v-343q79 4 138 16zM905 677q0 46 -28 80v-160q28 34 28 80zM119 677q0 -46 28 -80v160q-28 -34 -28 -80z" />
<glyph unicode="&#x2231;" d="M925 525l-301 154l132 58q-31 39 -71.5 67t-88.5 42v-804q0 -200 -81.5 -297.5t-244.5 -97.5h-159v152h144q81 0 126.5 51t45.5 179v816q-48 -14 -89 -42.5t-71 -67t-47 -86.5t-17 -101h-142q0 82 28 156t76.5 133t116 99t145.5 54v293q0 200 81 297.5t245 97.5h159v-152 h-146q-81 0 -125.5 -51t-44.5 -179v-305q93 -17 168 -68.5t126 -127.5l127 56z" />
<glyph unicode="&#x2232;" d="M203 677q0 -53 17 -101t47 -87t71 -67.5t89 -42.5v595q-48 -14 -89 -42.5t-71 -67t-47 -86.5t-17 -101zM609 811l156 44q-40 50 -80.5 78t-88.5 42v-596q48 14 89 43t71 68t43 77l134 -47q-27 -73 -75.5 -131.5t-116 -99t-145.5 -55.5v-192q0 -200 -81.5 -297.5 t-244.5 -97.5h-159v152h155q81 0 121 51t40 179v205q-78 14 -145.5 54.5t-116 99t-76.5 132.5t-28 157q0 82 28 156t76.5 133t116 99t145.5 54v164q0 200 81 297.5t245 97.5h159v-152h-155q-81 0 -121 -51t-40 -179v-176q92 -17 172.5 -71.5t138.5 -154.5l152 43l-151 -335z " />
<glyph unicode="&#x2233;" d="M203 677q0 -53 17 -101t47 -87t71 -67.5t89 -42.5v595q-48 -14 -89 -42.5t-71 -67t-47 -86.5t-17 -101zM596 379q48 14 89.5 42.5t71.5 67.5t47 87t17 101q0 45 -13 91l-156 -69l91 350l339 -158l-145 -65q13 -35 19.5 -72t6.5 -77q0 -83 -28 -157.5t-77 -133 t-116.5 -98.5t-145.5 -54v-192q0 -200 -81.5 -297.5t-244.5 -97.5h-159v152h155q81 0 121 51t40 179v205q-78 14 -145.5 54.5t-116 99t-76.5 132.5t-28 157q0 82 28 156t76.5 133t116 99t145.5 54v164q0 200 81 297.5t245 97.5h159v-152h-155q-81 0 -121 -51t-40 -179v-917z " />
<glyph unicode="&#x2234;" d="M867 329q0 -54 -38.5 -91.5t-92.5 -37.5t-91.5 37.5t-37.5 91.5q0 56 37.5 94t91.5 38t92.5 -38t38.5 -94zM416 329q0 -54 -38 -91.5t-92 -37.5t-92 37.5t-38 91.5q0 56 38 94t92 38t92 -38t38 -94zM642 916q0 -54 -38 -92t-92 -38t-92 38t-38 92q0 55 38 93t92 38 t92 -38t38 -93z" />
<glyph unicode="&#x2235;" d="M867 918q0 -55 -38.5 -93.5t-92.5 -38.5t-91.5 38.5t-37.5 93.5q0 54 37.5 91.5t91.5 37.5t92.5 -37.5t38.5 -91.5zM416 918q0 -55 -38 -93.5t-92 -38.5t-92 38.5t-38 93.5q0 54 38 91.5t92 37.5t92 -37.5t38 -91.5zM642 331q0 -55 -38 -93t-92 -38t-92 38t-38 93 t38 92.5t92 37.5t92 -37.5t38 -92.5z" />
<glyph unicode="&#x2236;" d="M643 329q0 -54 -38.5 -91.5t-92.5 -37.5t-91.5 37.5t-37.5 91.5q0 56 37.5 94t91.5 38t92.5 -38t38.5 -94zM642 916q0 -54 -38 -92t-92 -38t-92 38t-38 92q0 55 38 93t92 38t92 -38t38 -93z" />
<glyph unicode="&#x2237;" d="M417 329q0 -54 -38.5 -91.5t-92.5 -37.5t-92 37.5t-38 91.5q0 56 38 94t92 38t92.5 -38t38.5 -94zM416 916q0 -54 -38 -92t-92 -38t-92 38t-38 92q0 55 38 93t92 38t92 -38t38 -93zM868 329q0 -54 -38.5 -91.5t-92.5 -37.5t-91.5 37.5t-37.5 91.5q0 56 37.5 94t91.5 38 t92.5 -38t38.5 -94zM867 916q0 -54 -38 -92t-92 -38t-92 38t-38 92q0 55 38 93t92 38t92 -38t38 -93z" />
<glyph unicode="&#x2238;" d="M642 973q0 -54 -38 -92t-92 -38t-92 38t-38 92q0 55 38 93t92 38t92 -38t38 -93zM938 534h-852v145h852v-145z" />
<glyph unicode="&#x2239;" d="M584 536h-514v141h514v-141zM955 274q0 -54 -38.5 -92t-92.5 -38t-91.5 38t-37.5 92q0 55 37.5 93t91.5 38t92.5 -38t38.5 -93zM954 937q0 -54 -38 -91.5t-92 -37.5t-92 37.5t-38 91.5q0 56 38 94t92 38t92 -38t38 -94z" />
<glyph unicode="&#x223a;" d="M879 536h-734v141h734v-141zM880 274q0 -54 -38.5 -92t-92.5 -38t-92 38t-38 92q0 55 38 93t92 38t92.5 -38t38.5 -93zM879 937q0 -54 -38 -91.5t-92 -37.5t-92.5 37.5t-38.5 91.5q0 56 38.5 94t92.5 38t92 -38t38 -94zM407 274q0 -54 -39 -92t-93 -38t-91.5 38t-37.5 92 q0 55 37.5 93t91.5 38t93 -38t39 -93zM406 937q0 -54 -38.5 -91.5t-92.5 -37.5t-92 37.5t-38 91.5q0 56 38 94t92 38t92.5 -38t38.5 -94z" />
<glyph unicode="&#x223b;" d="M643 232q0 -54 -38.5 -91.5t-92.5 -37.5t-91.5 37.5t-37.5 91.5q0 55 37.5 93.5t91.5 38.5t92.5 -38.5t38.5 -93.5zM642 973q0 -54 -38 -91.5t-92 -37.5t-92 37.5t-38 91.5q0 55 38 93t92 38t92 -38t38 -93zM331 599q-95 0 -209 -121h-38v163q126 119 247 119 q82 0 188.5 -68.5t170.5 -68.5q98 0 212 122h38v-163q-126 -119 -250 -119q-89 0 -199 68t-160 68z" />
<glyph unicode="&#x223c;" d="M331 599q-95 0 -209 -121h-38v163q126 119 247 119q82 0 188.5 -68.5t170.5 -68.5q98 0 212 122h38v-163q-126 -119 -250 -119q-89 0 -199 68t-160 68z" />
<glyph unicode="&#x223d;" d="M693 599q-50 0 -160 -68t-199 -68q-124 0 -250 119v163h38q114 -122 212 -122q64 0 170.5 68.5t188.5 68.5q121 0 247 -119v-163h-38q-114 121 -209 121z" />
<glyph unicode="&#x223e;" d="M760 877q168 -76 168 -264q0 -120 -69 -184.5t-153 -64.5q-145 0 -243.5 169t-168.5 169q-84 0 -84 -109q0 -103 89 -138l-62 -126q-168 76 -168 264q0 120 69 185t156 65q142 0 240.5 -169t168.5 -169q84 0 84 108q0 103 -90 138z" />
<glyph unicode="&#x223f;" d="M413 828q-35 382 -105 382q-74 0 -98 -587h-155q14 781 253 781q208 0 264 -576l40 -410q36 -382 106 -382q74 0 98 587h155q-14 -780 -253 -780q-208 0 -264 575z" />
<glyph unicode="&#x2240;" d="M504 811q0 115 -141 248v38h174q138 -145 138 -286q0 -82 -77.5 -207.5t-77.5 -189.5q0 -118 141 -251v-38h-174q-138 145 -138 289q0 89 77.5 218.5t77.5 178.5z" />
<glyph unicode="&#x2241;" d="M331 599q-95 0 -209 -121h-38v163q126 119 247 119q61 0 137 -39l85 301h154l-106 -376q52 -23 89 -23q98 0 212 122h38v-163q-126 -119 -250 -119q-61 0 -132 31l-84 -301h-155l105 375q-60 31 -93 31z" />
<glyph unicode="&#x2242;" d="M938 732h-852v141h852v-141zM331 441q-95 0 -209 -122h-38v163q126 119 247 119q82 0 188.5 -68t170.5 -68q98 0 212 122h38v-164q-126 -118 -250 -118q-89 0 -199 68t-160 68z" />
<glyph unicode="&#x2243;" d="M938 355h-852v141h852v-141zM331 763q-95 0 -209 -122h-38v163q126 119 247 119q82 0 188.5 -68t170.5 -68q98 0 212 121h38v-163q-126 -119 -250 -119q-89 0 -199 68.5t-160 68.5z" />
<glyph unicode="&#x2244;" d="M425 16h-155l95 339h-279v141h319l60 213q-90 54 -134 54q-95 0 -209 -122h-38v163q126 119 247 119q78 0 177 -61l92 328h154l-111 -397q25 -6 47 -6q98 0 212 121h38v-163q-126 -119 -250 -119q-43 0 -89 16l-42 -146h379v-141h-418z" />
<glyph unicode="&#x2245;" d="M938 206h-852v141h852v-141zM331 909q-95 0 -209 -121h-38v163q126 119 247 119q82 0 188.5 -68t170.5 -68q98 0 212 121h38v-163q-126 -119 -250 -119q-89 0 -199 68t-160 68zM938 502h-852v141h852v-141z" />
<glyph unicode="&#x2246;" d="M938 502h-319l-59 -155h378v-141h-432l-62 -164h-155l63 164h-266v141h319l59 155h-378v141h432l63 164h154l-63 -164h266v-141zM331 1016q-95 0 -209 -122h-38v163q126 119 247 119q82 0 188.5 -68t170.5 -68q98 0 212 121h38v-163q-126 -119 -250 -119q-89 0 -199 68.5 t-160 68.5z" />
<glyph unicode="&#x2247;" d="M391 -102h-155l87 308h-237v141h276l44 155h-320v141h359l55 192l-9 6q-110 68 -160 68q-95 0 -209 -121h-38v163q126 119 247 119q82 0 189 -69q11 -8 23 -14l86 303h154l-100 -356h7q98 0 212 121h38v-163q-126 -119 -250 -119q-25 0 -51 5l-38 -135h337v-141h-377 l-43 -155h420v-141h-460z" />
<glyph unicode="&#x2248;" d="M331 785q-95 0 -209 -122h-38v163q126 119 247 119q82 0 188.5 -68t170.5 -68q98 0 212 122h38v-164q-126 -118 -250 -118q-89 0 -199 68t-160 68zM331 404q-95 0 -209 -122h-38v164q126 118 247 118q82 0 188.5 -68t170.5 -68q98 0 212 122h38v-163q-126 -119 -250 -119 q-89 0 -199 68t-160 68z" />
<glyph unicode="&#x2249;" d="M331 404q-95 0 -209 -122h-38v164q126 118 247 118q41 0 88 -17l51 182q-94 56 -139 56q-95 0 -209 -122h-38v163q126 119 247 119q80 0 182 -64l87 309h154l-105 -375q22 -6 41 -6q98 0 212 122h38v-164q-126 -118 -250 -118q-40 0 -83 13l-53 -187q83 -47 136 -47 q98 0 212 122h38v-163q-126 -119 -250 -119q-80 0 -179 55l-86 -307h-155l106 378q-26 10 -45 10z" />
<glyph unicode="&#x224a;" d="M938 121h-852v141h852v-141zM331 909q-95 0 -209 -121h-38v163q126 119 247 119q82 0 188.5 -68t170.5 -68q98 0 212 121h38v-163q-126 -119 -250 -119q-89 0 -199 68t-160 68zM331 529q-95 0 -209 -122h-38v163q126 119 247 119q82 0 188.5 -68t170.5 -68q98 0 212 122 h38v-164q-126 -118 -250 -118q-89 0 -199 68t-160 68z" />
<glyph unicode="&#x224b;" d="M331 967q-95 0 -209 -121h-38v163q126 119 247 119q82 0 188.5 -68.5t170.5 -68.5q98 0 212 122h38v-163q-126 -119 -250 -119q-89 0 -199 68t-160 68zM331 587q-95 0 -209 -122h-38v163q126 119 247 119q82 0 188.5 -68t170.5 -68q98 0 212 122h38v-164 q-126 -118 -250 -118q-89 0 -199 68t-160 68zM331 206q-95 0 -209 -122h-38v164q126 118 247 118q82 0 188.5 -68t170.5 -68q98 0 212 122h38v-163q-126 -119 -250 -119q-89 0 -199 68t-160 68z" />
<glyph unicode="&#x224c;" d="M86 347h852v-141h-852v141zM693 909q-50 0 -160 -68t-199 -68q-124 0 -250 119v163h38q114 -121 212 -121q64 0 170.5 68t188.5 68q121 0 247 -119v-163h-38q-114 121 -209 121zM86 643h852v-141h-852v141z" />
<glyph unicode="&#x224d;" d="M512 670q-224 0 -428 148v153h62q169 -141 366 -141t366 141h62v-153q-204 -148 -428 -148zM512 538q224 0 428 -147v-154h-62q-169 141 -366 141t-366 -141h-62v154q204 147 428 147z" />
<glyph unicode="&#x224e;" d="M361 719h-275v145h135q27 358 291 358q263 0 290 -358h136v-145h-275q0 191 -39 273.5t-112 82.5t-112 -82.5t-39 -273.5zM361 494q0 -192 39 -274.5t112 -82.5t112 82.5t39 274.5h275v-145h-136q-27 -359 -290 -359q-264 0 -291 359h-135v145h275z" />
<glyph unicode="&#x224f;" d="M361 702h-275v141h135q27 362 291 362q263 0 290 -362h136v-141h-275q0 191 -39 273.5t-112 82.5t-112 -82.5t-39 -273.5zM938 365h-852v141h852v-141z" />
<glyph unicode="&#x2250;" d="M642 1169q0 -54 -38 -91.5t-92 -37.5t-92 37.5t-38 91.5q0 55 38 93.5t92 38.5t92 -38.5t38 -93.5zM938 719h-852v145h852v-145zM938 349h-852v145h852v-145z" />
<glyph unicode="&#x2251;" d="M642 1169q0 -54 -38 -91.5t-92 -37.5t-92 37.5t-38 91.5q0 55 38 93.5t92 38.5t92 -38.5t38 -93.5zM937 719h-851v145h852zM937 349h-851v145h852zM642 38q0 -55 -38 -93t-92 -38t-92 38t-38 93q0 54 38 91.5t92 37.5t92 -37.5t38 -91.5z" />
<glyph unicode="&#x2252;" d="M347 1169q0 -54 -38.5 -91.5t-92.5 -37.5t-92 37.5t-38 91.5q0 55 38 93.5t92 38.5t92.5 -38.5t38.5 -93.5zM937 720h-851v144h851v-144zM937 349h-851v145h851v-145zM938 38q0 -55 -38 -93t-92 -38q-55 0 -93 38t-38 93q0 54 38 91.5t93 37.5q54 0 92 -37.5t38 -91.5z " />
<glyph unicode="&#x2253;" d="M677 1169q0 55 38 93.5t93 38.5q54 0 92 -38.5t38 -93.5q0 -54 -38 -91.5t-92 -37.5q-55 0 -93 37.5t-38 91.5zM86 864h851v-145h-851v145zM86 494h851v-145h-851v145zM86 38q0 54 38 91.5t92 37.5t92.5 -37.5t38.5 -91.5q0 -55 -38.5 -93t-92.5 -38t-92 38t-38 93z" />
<glyph unicode="&#x2254;" d="M440 494h514v-145h-514v145zM70 423q0 55 38.5 93.5t92.5 38.5t91.5 -38.5t37.5 -93.5q0 -54 -37.5 -91.5t-91.5 -37.5t-92.5 37.5t-38.5 91.5zM440 864h514v-145h-514v145zM70 788q0 55 38.5 93t92.5 38t91.5 -38t37.5 -93q0 -54 -37.5 -91.5t-91.5 -37.5t-92.5 37.5 t-38.5 91.5z" />
<glyph unicode="&#x2255;" d="M584 349h-514v145h514v-145zM954 423q0 -54 -38.5 -91.5t-92.5 -37.5t-91.5 37.5t-37.5 91.5q0 55 37.5 93.5t91.5 38.5t92.5 -38.5t38.5 -93.5zM584 719h-514v145h514v-145zM954 788q0 -54 -38.5 -91.5t-92.5 -37.5t-91.5 37.5t-37.5 91.5q0 55 37.5 93t91.5 38 t92.5 -38t38.5 -93z" />
<glyph unicode="&#x2256;" d="M795 604q0 -94 -54 -166h207v-122h-872v122h206q-53 72 -53 166q0 93 53 165h-206v122h872v-122h-207q54 -72 54 -165zM665 604q0 63 -41 107.5t-112 44.5t-111.5 -44.5t-40.5 -107.5q0 -64 40.5 -108.5t111.5 -44.5q70 0 111.5 45.5t41.5 107.5z" />
<glyph unicode="&#x2257;" d="M938 520h-852v145h852v-145zM938 150h-852v145h852v-145zM748 1068q0 -95 -69 -165.5t-168 -70.5t-167.5 70.5t-68.5 165.5q0 96 68.5 166t167.5 70t168 -70t69 -166zM618 1068q0 45 -28.5 76t-78.5 31q-49 0 -77.5 -31t-28.5 -76q0 -44 28.5 -75.5t77.5 -31.5t78 32 t29 75z" />
<glyph unicode="&#x2258;" d="M938 520h-852v145h852v-145zM938 150h-852v145h852v-145zM752 815q-106 151 -240 151q-135 0 -240 -151l-111 80q140 210 351 210q210 0 349 -210z" />
<glyph unicode="&#x2259;" d="M938 520h-852v145h852v-145zM938 150h-852v145h852v-145zM871 805h-178l-181 253l-182 -253h-178l360 470z" />
<glyph unicode="&#x225a;" d="M512 756l-360 471h178l182 -253l181 253h178zM938 520h-852v145h852v-145zM938 150h-852v145h852v-145z" />
<glyph unicode="&#x225b;" d="M846 1135l-202 -152l83 -243l-214 150l-214 -150l83 243l-204 152h255l80 231l79 -231h254zM938 520h-852v145h852v-145zM938 150h-852v145h852v-145z" />
<glyph unicode="&#x225c;" d="M554 1383l317 -523h-719l318 523h84zM367 974h289l-144 236zM938 520h-852v145h852v-145zM938 150h-852v145h852v-145z" />
<glyph unicode="&#x225d;" d="M222 1233q34 0 62 -30v146h81v-489h-81v24q-28 -30 -62 -30q-111 0 -111 165v48q0 166 111 166zM235 929q34 0 49 60v117q-14 51 -49 51q-41 0 -41 -90v-48q0 -90 41 -90zM513 1030v-10q0 -91 48 -91q37 0 62 50l66 -50q-48 -75 -129 -75q-63 0 -98 52q-30 45 -30 114v47 q0 68 30 113q35 54 98 54q62 0 96 -50q30 -43 30 -108v-46h-173zM560 1158q-43 0 -46 -68h91q-3 68 -45 68zM881 1280q-27 0 -27 -41v-31h89v-76h-89v-272h-81v272h-59v76h59v28q0 119 105 119q67 0 101 -55l-66 -40q-15 20 -32 20zM938 520h-852v145h852v-145zM938 150 h-852v145h852v-145z" />
<glyph unicode="&#x225e;" d="M573 860h-121v200q0 109 -69 109q-43 0 -61 -30.5t-18 -78.5v-200h-120v406h120v-65h15q41 74 114 74q96 0 120 -74h14q39 74 127 74q147 0 147 -215v-200h-120v200q0 109 -70 109q-42 0 -60 -30.5t-18 -78.5v-200zM938 520h-852v145h852v-145zM938 150h-852v145h852 v-145z" />
<glyph unicode="&#x225f;" d="M565 1045v-10h-118v10q0 70 55 111l68 51q22 16 22 39q0 47 -82 47q-85 0 -114 -80l-96 65q68 127 210 127q99 0 149.5 -45t50.5 -114q0 -66 -71 -119l-48 -34q-26 -20 -26 -48zM438 901q0 31 21.5 53t52.5 22t53 -22t22 -53q0 -32 -22 -53t-53 -21t-52.5 21.5 t-21.5 52.5zM938 520h-852v145h852v-145zM938 150h-852v145h852v-145z" />
<glyph unicode="&#x2260;" d="M937 349h-467l-155 -325h-165l155 325h-219v145h289l108 225h-397v145h466l157 328h164l-157 -328h221v-145h-290l-108 -225h398v-145z" />
<glyph unicode="&#x2261;" d="M897 869h-770v145h770v-145zM897 534h-770v145h770v-145zM897 199h-770v145h770v-145z" />
<glyph unicode="&#x2262;" d="M897 534h-338l-90 -190h428v-145h-496l-106 -225h-165l106 225h-109v145h178l89 190h-267v145h336l90 190h-426v145h494l108 228h164l-108 -228h112v-145h-180l-90 -190h270v-145z" />
<glyph unicode="&#x2263;" d="M897 289h-770v141h770v-141zM897 -6h-770v141h770v-141zM897 585h-770v141h770v-141zM897 880h-770v141h770v-141z" />
<glyph unicode="&#x2264;" d="M859 0h-732v157h732v-157zM250 754l609 -328v-182l-732 402v215l732 402v-182z" />
<glyph unicode="&#x2265;" d="M165 157h732v-157h-732v157zM165 1081v182l732 -402v-215l-732 -402v182l609 328z" />
<glyph unicode="&#x2266;" d="M859 155h-732v141h732v-141zM250 893l609 -328v-182l-732 402v215l732 402v-182zM859 -141h-732v141h732v-141z" />
<glyph unicode="&#x2267;" d="M165 296h732v-141h-732v141zM165 1220v182l732 -402v-215l-732 -402v182l609 328zM165 0h732v-141h-732v141z" />
<glyph unicode="&#x2268;" d="M859 -141h-372l-62 -164h-155l62 164h-205v141h258l59 155h-317v141h371l63 164h155l-63 -164h206v-141h-259l-59 -155h318v-141zM250 893l609 -327v-183l-732 402v215l732 402v-182z" />
<glyph unicode="&#x2269;" d="M897 -141h-372l-62 -164h-155l62 164h-205v141h258l59 155h-317v141h371l63 164h155l-63 -164h206v-141h-259l-59 -155h318v-141zM165 1220v182l732 -402v-215l-732 -402v183l609 327z" />
<glyph unicode="&#x226a;" d="M188 607l368 -307v-202l-536 451v116l536 451v-202zM616 607l368 -307v-202l-605 509l605 509v-202z" />
<glyph unicode="&#x226b;" d="M468 914v202l536 -451v-116l-536 -451v202l368 307zM40 914v202l605 -509l-605 -509v202l368 307z" />
<glyph unicode="&#x226c;" d="M747 -80l-77 -128q-85 46 -158 109q-73 -63 -158 -109l-77 128q69 38 129 89q-45 54 -84 116q-138 219 -138 478t138 477q38 63 84 117q-60 51 -129 89l77 129q85 -47 158 -111q73 64 158 111l77 -129q-70 -38 -130 -89q46 -54 85 -117q138 -218 138 -477t-138 -478 q-39 -62 -85 -116q60 -51 130 -89zM680 603q0 225 -115 407q-25 40 -53 75q-28 -35 -53 -75q-115 -182 -115 -407t115 -408q25 -39 53 -75q28 36 53 75q115 183 115 408z" />
<glyph unicode="&#x226d;" d="M940 808q-156 -113 -323 -140l-48 -123q193 -16 371 -145v-148h-62q-169 142 -366 142h-2l-147 -376h-159l135 347q-100 -35 -193 -113h-62v148q156 113 324 140l48 122q-194 16 -372 146v149h62q169 -141 366 -141h4l145 370h159l-133 -340q99 34 191 111h62v-149z" />
<glyph unicode="&#x226e;" d="M343 -114h-150l169 458l-284 155v215l528 288l122 328h150l-84 -226l113 62v-183l-197 -105l-168 -453l365 -195v-183l-420 229zM202 607l215 -115l106 286z" />
<glyph unicode="&#x226f;" d="M296 -114h-150l82 221l-111 -60v183l195 104l168 455l-363 194v183l418 -229l146 393h150l-171 -461l286 -155v-215l-530 -289zM822 607l-217 115l-106 -288z" />
<glyph unicode="&#x2270;" d="M859 0h-521l-39 -106h-143l39 106h-68v157h127l129 348l-256 141v215l487 268l82 219h143l-45 -121l65 36v-182l-149 -80l-153 -413l302 -162v-182l-357 196l-105 -283h462v-157zM250 754l188 -101l93 252z" />
<glyph unicode="&#x2271;" d="M289 -106h-143l39 106h-20v157h79l61 164l-140 -77v182l223 120l129 346l-352 189v182l406 -224l115 309h143l-139 -374l207 -113v-215l-413 -227l-97 -262h510v-157h-569zM774 754l-138 74l-69 -185z" />
<glyph unicode="&#x2272;" d="M319 116q-76 0 -160 -122h-38v163q96 119 198 119q82 0 178.5 -68t160.5 -68q79 0 163 122h38v-164q-96 -118 -201 -118q-89 0 -189.5 68t-149.5 68zM250 869l609 -328v-182l-732 402v215l732 402v-182z" />
<glyph unicode="&#x2273;" d="M357 116q-76 0 -160 -122h-38v163q96 119 198 119q82 0 178.5 -68t160.5 -68q79 0 163 122h38v-164q-96 -118 -201 -118q-89 0 -189.5 68t-149.5 68zM165 1196v182l732 -402v-215l-732 -402v182l609 328z" />
<glyph unicode="&#x2274;" d="M297 -237h-149l104 331q-45 -30 -93 -100h-38v163q91 113 188 119l104 328l-286 157v215l487 267l115 365h149l-84 -266l65 36v-182l-134 -72l-137 -437l271 -146v-182l-319 175l-93 -295q24 -13 50 -31q97 -68 161 -68q79 0 163 122h38v-164q-96 -118 -201 -118 q-89 0 -190 68q-38 26 -68 42zM250 869l210 -114l86 273z" />
<glyph unicode="&#x2275;" d="M165 1196v182l419 -230l145 460h149l-167 -530l186 -102v-215l-346 -190l-99 -316q40 -17 83 -47q97 -68 161 -68q79 0 163 122h38v-164q-96 -118 -201 -118q-89 0 -190 68q-60 41 -102 57l-107 -342h-149l89 283q-20 -22 -40 -52h-38v163q72 89 148 111l64 204 l-206 -113v182l274 148l97 307zM774 869l-110 59l-45 -143z" />
<glyph unicode="&#x2276;" d="M148 454v183l730 -362v-215l-730 -362v183l606 287zM272 974l606 -287v-183l-730 362v215l730 362v-183z" />
<glyph unicode="&#x2277;" d="M272 168l606 -287v-183l-730 362v215l730 362v-183zM148 1260v183l730 -362v-215l-730 -362v183l606 287z" />
<glyph unicode="&#x2278;" d="M792 1219l-135 -428l221 -104v-183l-269 133l-63 -198l332 -164v-215l-535 -265l-46 -147h-149l18 60l-18 -10v183l86 41l135 428l-221 104v183l269 -134l63 198l-332 165v215l535 265l46 147h149l-19 -60l19 10v-183zM527 853l90 283l-345 -162zM499 288l-90 -284 l345 164z" />
<glyph unicode="&#x2279;" d="M765 1136l113 -55v-215l-234 -116l-86 -272l320 159v-183l-385 -182l-57 -182l442 -209v-183l-489 243l-92 -293h-149l112 356l-112 56v215l234 116l85 271l-319 -158v183l384 182l58 182l-442 209v183l489 -243l92 293h149zM306 151l12 39l-46 -22zM719 990l-12 -38 l47 22z" />
<glyph unicode="&#x227a;" d="M68 529v156q638 50 688 460h181q-70 -506 -614 -538q544 -32 614 -538h-181q-50 410 -688 460z" />
<glyph unicode="&#x227b;" d="M956 529q-638 -50 -688 -460h-181q70 506 614 538q-544 32 -614 538h181q50 -410 688 -460v-156v0z" />
<glyph unicode="&#x227c;" d="M78 474v140q682 0 859 -614h-181q-120 450 -678 474zM78 767v156q628 50 678 460h181q-70 -506 -614 -538q405 -2 594 -236v-292q-201 440 -839 450z" />
<glyph unicode="&#x227d;" d="M946 474q-558 -24 -678 -474h-181q177 614 859 614v-140zM946 767q-638 -10 -839 -450v292q189 234 594 236q-544 32 -614 538h181q50 -410 678 -460v-156z" />
<glyph unicode="&#x227e;" d="M296 116q-86 0 -190 -122h-38v163q116 119 228 119q82 0 214 -68t196 -68q89 0 193 122h38v-164q-116 -118 -231 -118q-89 0 -225 68t-185 68zM68 831v156q638 50 688 460h181q-70 -506 -614 -538q544 -32 614 -538h-181q-50 410 -688 460z" />
<glyph unicode="&#x227f;" d="M315 116q-86 0 -190 -122h-38v163q116 119 228 119q82 0 214 -68t196 -68q89 0 193 122h38v-164q-116 -118 -231 -118q-89 0 -225 68t-185 68zM956 831q-638 -50 -688 -460h-181q70 506 614 538q-544 32 -614 538h181q50 -410 688 -460v-156z" />
<glyph unicode="&#x2280;" d="M218 -114h-150l226 610q-102 23 -226 33v156q183 14 317 58l218 587h150l-185 -499q163 115 188 314h181q-58 -420 -443 -514l-17 -45q400 -88 460 -517h-181q-34 273 -327 386z" />
<glyph unicode="&#x2281;" d="M806 1330h150l-226 -610q102 -23 226 -33v-156q-183 -14 -317 -58l-218 -587h-150l185 499q-163 -115 -188 -314h-181q58 420 443 514l17 45q-400 88 -460 517h181q34 -273 327 -386z" />
<glyph unicode="&#x2282;" d="M261 653q0 -222 149 -365t381 -143h137v-145h-137q-309 0 -506 189.5t-197 463.5q0 277 197 465t506 188h137v-145h-137q-232 0 -381 -142t-149 -366z" />
<glyph unicode="&#x2283;" d="M763 653q0 224 -149 366t-381 142h-137v145h137q309 0 506 -188t197 -465q0 -274 -197 -463.5t-506 -189.5h-137v145h137q232 0 381 143t149 365z" />
<glyph unicode="&#x2284;" d="M914 1532l-68 -226h82v-145h-125l-286 -952q118 -64 274 -64h137v-145h-137q-177 0 -318 62l-86 -288h-136l106 355q-38 27 -72 60q-197 190 -197 464q0 277 197 465q170 162 424 184l69 230h136zM261 653q0 -219 145 -362l257 858q-148 -29 -253 -130 q-149 -142 -149 -366z" />
<glyph unicode="&#x2285;" d="M110 -226l67 226h-81v145h125l285 951q-118 65 -273 65h-137v145h137q177 0 317 -63l87 289h136l-107 -355q38 -28 73 -61q197 -189 197 -463q0 -277 -197 -465q-170 -163 -424 -185l-69 -229h-136zM763 653q0 219 -145 361l-257 -857q147 29 253 130q149 142 149 366z " />
<glyph unicode="&#x2286;" d="M138 145h790v-145h-790v145zM261 931q0 -180 129 -296.5t331 -116.5h207v-145h-207q-299 0 -466 164.5t-167 393.5t167 393.5t466 164.5h207v-144h-207q-202 0 -331 -117t-129 -297z" />
<glyph unicode="&#x2287;" d="M886 0h-790v145h790v-145zM763 931q0 180 -129 297t-331 117h-207v144h207q299 0 466 -164.5t167 -393.5t-167 -393.5t-466 -164.5h-207v145h207q202 0 331 116.5t129 296.5z" />
<glyph unicode="&#x2288;" d="M138 145h179l87 289q-85 40 -149 103q-167 165 -167 394t167 393q166 164 464 165l59 198h136l-59 -198h73v-144h-116l-242 -809q70 -18 151 -18h207v-145h-207q-105 0 -194 20l-74 -248h475v-145h-518l-59 -198h-136l59 198h-136v145zM261 931q0 -180 129 -297 q28 -25 60 -45l225 754q-171 -12 -285 -115q-129 -117 -129 -297z" />
<glyph unicode="&#x2289;" d="M784 1687l-90 -302q40 -27 75 -61q167 -164 167 -393t-167 -394q-141 -139 -377 -160l-69 -232h563v-145h-606l-59 -198h-136l59 198h-48v145h91l68 228h-159v145h203l232 779q-99 48 -228 48h-207v144h207q154 0 273 -44l72 242h136zM763 931q0 173 -119 287l-205 -685 q112 27 195 101q129 117 129 297z" />
<glyph unicode="&#x228a;" d="M261 931q0 -180 129 -296.5t331 -116.5h207v-145h-207q-299 0 -466 164.5t-167 393.5t167 393.5t466 164.5h207v-144h-207q-202 0 -331 -117t-129 -297zM138 145h328l74 160h164l-74 -160h298v-145h-364l-83 -180h-165l83 180h-261v145z" />
<glyph unicode="&#x228b;" d="M763 931q0 180 -129 297t-331 117h-207v144h207q299 0 466 -164.5t167 -393.5t-167 -393.5t-466 -164.5h-207v145h207q202 0 331 116.5t129 296.5zM96 145h328l74 160h164l-74 -160h298v-145h-364l-83 -180h-165l83 180h-261v145z" />
<glyph unicode="&#x228c;" d="M212 460q0 -156 88.5 -242.5t211.5 -86.5t211.5 86.5t88.5 242.5v846h151v-846q0 -215 -132.5 -347.5t-318.5 -132.5t-318.5 132.5t-132.5 347.5v846h151v-846zM262 704l253 243v-180h239v-127h-239v-180z" />
<glyph unicode="&#x228d;" d="M642 709q0 -54 -38 -91.5t-92 -37.5t-92 37.5t-38 91.5q0 55 38 93.5t92 38.5t92 -38.5t38 -93.5zM212 460q0 -156 88.5 -242.5t211.5 -86.5t211.5 86.5t88.5 242.5v846h151v-846q0 -215 -132.5 -347.5t-318.5 -132.5t-318.5 132.5t-132.5 347.5v846h151v-846z" />
<glyph unicode="&#x228e;" d="M444 461v179h-174v127h174v179h136v-179h174v-127h-174v-179h-136zM212 460q0 -156 88.5 -242.5t211.5 -86.5t211.5 86.5t88.5 242.5v846h151v-846q0 -215 -132.5 -347.5t-318.5 -132.5t-318.5 132.5t-132.5 347.5v846h151v-846z" />
<glyph unicode="&#x228f;" d="M928 145v-145h-763v1306h763v-145h-593v-1016h593z" />
<glyph unicode="&#x2290;" d="M689 145v1016h-593v145h763v-1306h-763v145h593z" />
<glyph unicode="&#x2291;" d="M138 145h790v-145h-790v145zM928 518v-145h-783v1116h783v-144h-613v-827h613z" />
<glyph unicode="&#x2292;" d="M886 0h-790v145h790v-145zM709 518v827h-613v144h783v-1116h-783v145h613z" />
<glyph unicode="&#x2293;" d="M270 0h-171v1306h825v-1306h-170v1161h-484v-1161z" />
<glyph unicode="&#x2294;" d="M270 145h484v1161h170v-1306h-825v1306h171v-1161z" />
<glyph unicode="&#x2295;" d="M73 607q0 213 124.5 363t314.5 150t314.5 -150t124.5 -363t-124.5 -363t-314.5 -150t-314.5 150t-124.5 363zM574 246q81 21 140 98q62 81 77 191h-217v-289zM450 246v289h-218q15 -110 78 -191q60 -77 140 -98zM574 967v-287h217q-15 109 -77 189q-59 77 -140 98z M450 967q-80 -21 -140 -98q-62 -80 -78 -189h218v287z" />
<glyph unicode="&#x2296;" d="M73 607q0 213 124.5 363t314.5 150t314.5 -150t124.5 -363t-124.5 -363t-314.5 -150t-314.5 150t-124.5 363zM232 539q14 -113 78 -195q83 -105 202 -105q121 0 202 105q63 82 78 195h-560zM791 680q-15 109 -77 189q-81 106 -202 106q-119 0 -202 -106q-62 -80 -78 -189 h559z" />
<glyph unicode="&#x2297;" d="M73 607q0 213 124.5 363t314.5 150t314.5 -150t124.5 -363t-124.5 -363t-314.5 -150t-314.5 150t-124.5 363zM796 607q0 125 -52 218l-157 -219l156 -218q53 93 53 219zM228 607q0 -126 52 -218l156 218l-156 217q-52 -92 -52 -217zM512 975q-85 0 -151 -54l151 -210 l151 211q-66 53 -151 53zM512 239q85 0 151 52l-151 210l-150 -209q65 -53 150 -53z" />
<glyph unicode="&#x2298;" d="M73 607q0 213 124.5 363t314.5 150t314.5 -150t124.5 -363t-124.5 -363t-314.5 -150t-314.5 150t-124.5 363zM512 975q-119 0 -201.5 -105.5t-82.5 -262.5q0 -126 52 -218l383 533q-66 53 -151 53zM796 607q0 125 -52 218l-382 -533q65 -53 150 -53q121 0 202.5 105.5 t81.5 262.5z" />
<glyph unicode="&#x2299;" d="M654 607q0 -59 -41.5 -100t-100.5 -41t-100.5 41t-41.5 100q0 60 41.5 102t100.5 42t100.5 -42t41.5 -102zM73 607q0 213 124.5 363t314.5 150t314.5 -150t124.5 -363t-124.5 -363t-314.5 -150t-314.5 150t-124.5 363zM796 607q0 157 -81.5 262.5t-202.5 105.5 q-119 0 -201.5 -105.5t-82.5 -262.5t82.5 -262.5t201.5 -105.5q121 0 202.5 105.5t81.5 262.5z" />
<glyph unicode="&#x229a;" d="M73 607q0 213 124.5 363t314.5 150t314.5 -150t124.5 -363t-124.5 -363t-314.5 -150t-314.5 150t-124.5 363zM796 607q0 157 -81.5 262.5t-202.5 105.5q-119 0 -201.5 -105.5t-82.5 -262.5t82.5 -262.5t201.5 -105.5q121 0 202.5 105.5t81.5 262.5zM296 607 q0 92 65.5 154.5t150.5 62.5t150.5 -62.5t65.5 -154.5t-65.5 -154t-150.5 -62t-150.5 62t-65.5 154zM604 607q0 36 -25.5 64t-66.5 28t-67 -28t-26 -64t26 -64.5t67 -28.5t66.5 28.5t25.5 64.5z" />
<glyph unicode="&#x229b;" d="M73 607q0 213 124.5 363t314.5 150t314.5 -150t124.5 -363t-124.5 -363t-314.5 -150t-314.5 150t-124.5 363zM796 607q0 157 -81.5 262.5t-202.5 105.5q-119 0 -201.5 -105.5t-82.5 -262.5t82.5 -262.5t201.5 -105.5q121 0 202.5 105.5t81.5 262.5zM512 513l96 -143 l102 72l-110 136l144 44l-39 120l-137 -59l8 170h-128l8 -170l-137 59l-39 -120l144 -44l-110 -136l102 -72z" />
<glyph unicode="&#x229c;" d="M330 799h364v-132h-364v132zM330 541h364v-131h-364v131zM73 607q0 213 124.5 363t314.5 150t314.5 -150t124.5 -363t-124.5 -363t-314.5 -150t-314.5 150t-124.5 363zM796 607q0 157 -81.5 262.5t-202.5 105.5q-119 0 -201.5 -105.5t-82.5 -262.5t82.5 -262.5 t201.5 -105.5q121 0 202.5 105.5t81.5 262.5z" />
<glyph unicode="&#x229d;" d="M330 670h364v-132h-364v132zM73 607q0 213 124.5 363t314.5 150t314.5 -150t124.5 -363t-124.5 -363t-314.5 -150t-314.5 150t-124.5 363zM796 607q0 157 -81.5 262.5t-202.5 105.5q-119 0 -201.5 -105.5t-82.5 -262.5t82.5 -262.5t201.5 -105.5q121 0 202.5 105.5 t81.5 262.5z" />
<glyph unicode="&#x229e;" d="M921 137h-818v945h818v-945zM786 282v255h-212v-255h212zM238 282h212v255h-212v-255zM238 682h212v255h-212v-255zM786 937h-212v-255h212v255z" />
<glyph unicode="&#x229f;" d="M921 137h-818v945h818v-945zM786 937h-548v-255h548v255zM238 282h548v255h-548v-255z" />
<glyph unicode="&#x22a0;" d="M921 137h-818v945h818v-945zM786 329v554l-199 -277zM238 883v-553l198 276zM512 712l161 225h-323zM354 282h315l-157 219z" />
<glyph unicode="&#x22a1;" d="M921 137h-818v945h818v-945zM238 282h548v655h-548v-655zM512 739q54 0 91.5 -38.5t37.5 -92.5t-37.5 -92t-91.5 -38q-55 0 -93 38t-38 92t38 92.5t93 38.5z" />
<glyph unicode="&#x22a2;" d="M122 222v771h160v-311h678v-150h-678v-310h-160z" />
<glyph unicode="&#x22a3;" d="M742 222v310h-678v150h678v311h160v-771h-160z" />
<glyph unicode="&#x22a4;" d="M897 1032h-305v-991h-160v991h-305v141h770v-141z" />
<glyph unicode="&#x22a5;" d="M897 41h-770v151h305v981h160v-981h305v-151z" />
<glyph unicode="&#x22a6;" d="M286 86v1042h160v-446h418v-150h-418v-446h-160z" />
<glyph unicode="&#x22a7;" d="M286 86v1042h160v-273h418v-150h-418v-195h418v-151h-418v-273h-160z" />
<glyph unicode="&#x22a8;" d="M122 86v1042h160v-273h678v-150h-678v-195h678v-151h-678v-273h-160z" />
<glyph unicode="&#x22a9;" d="M460 86v1042h160v-446h292v-150h-292v-446h-160zM311 86h-160v1042h160v-1042z" />
<glyph unicode="&#x22aa;" d="M635 86v1042h146v-446h218v-150h-218v-446h-146zM515 86h-146v1042h146v-1042zM249 86h-146v1042h146v-1042z" />
<glyph unicode="&#x22ab;" d="M460 86v1042h160v-273h340v-150h-340v-195h340v-151h-340v-273h-160zM311 86h-160v1042h160v-1042z" />
<glyph unicode="&#x22ac;" d="M469 -37h-145l162 569h-204v-310h-160v771h160v-311h246l162 565h145l-161 -565h286v-150h-329z" />
<glyph unicode="&#x22ad;" d="M477 -99h-146l132 458h-181v-273h-160v1042h160v-273h323l131 456h145l-131 -456h210v-150h-253l-56 -195h309v-151h-352zM282 510h224l56 195h-280v-195z" />
<glyph unicode="&#x22ae;" d="M622 -99h-146l181 631h-133v-446h-151v1042h151v-446h176l181 629h145l-181 -629h106v-150h-148zM243 86h-150v1042h150v-1042z" />
<glyph unicode="&#x22af;" d="M622 -99h-146l135 468h-116v-283h-161v1042h161v-282h253l133 465h145l-133 -465h67v-141h-108l-56 -195h164v-141h-205zM205 86h-151v1042h151v-1042zM495 510h156l56 195h-212v-195z" />
<glyph unicode="&#x22b0;" d="M355 606l210 -74q322 -115 322 -342q0 -268 -386 -294v154q215 6 215 150q0 117 -212 191l-446 157v116l446 157q212 74 212 191q0 144 -215 150v154q386 -26 386 -294q0 -227 -322 -342z" />
<glyph unicode="&#x22b1;" d="M459 680q-322 115 -322 342q0 268 386 294v-154q-215 -6 -215 -150q0 -117 212 -191l446 -157v-116l-446 -157q-212 -74 -212 -191q0 -144 215 -150v-154q-386 26 -386 294q0 227 322 342l210 74z" />
<glyph unicode="&#x22b2;" d="M-10 606l878 522v-1043zM311 606l397 -240v480z" />
<glyph unicode="&#x22b3;" d="M156 85v1043l878 -522zM316 846v-480l397 240z" />
<glyph unicode="&#x22b4;" d="M868 0h-810v141h810v-141zM-10 729l878 522v-1043zM311 729l397 -240v480z" />
<glyph unicode="&#x22b5;" d="M156 141h810v-141h-810v141zM156 208v1043l878 -522zM316 969v-480l397 240z" />
<glyph unicode="&#x22b6;" d="M1002 607q0 -99 -59 -169.5t-153 -70.5q-148 0 -199 170h-158q-51 -170 -199 -170q-94 0 -153 70.5t-59 169.5t59 170t153 71q148 0 199 -170h158q51 170 199 170q94 0 153 -71t59 -170zM155 607q0 -53 21 -81t58 -28q36 0 57.5 28t21.5 81t-21.5 81t-57.5 28 q-37 0 -58 -28t-21 -81z" />
<glyph unicode="&#x22b7;" d="M22 607q0 99 59 170t153 71q148 0 199 -170h158q51 170 199 170q94 0 153 -71t59 -170t-59 -169.5t-153 -70.5q-148 0 -199 170h-158q-51 -170 -199 -170q-94 0 -153 70.5t-59 169.5zM869 607q0 53 -21 81t-58 28q-36 0 -57.5 -28t-21.5 -81t21.5 -81t57.5 -28 q37 0 58 28t21 81z" />
<glyph unicode="&#x22b8;" d="M41 678h550q51 170 199 170q94 0 153 -71t59 -170t-59 -169.5t-153 -70.5q-148 0 -199 170h-550v141zM869 607q0 53 -21 81t-58 28q-36 0 -57.5 -28t-21.5 -81t21.5 -81t57.5 -28q37 0 58 28t21 81z" />
<glyph unicode="&#x22b9;" d="M401 536h-353v141h353v-141zM976 536h-353v141h353v-141zM582 321v-352h-141v352h141zM582 1244v-353h-141v353h141z" />
<glyph unicode="&#x22ba;" d="M830 1079h-238v-818h-160v818h-238v141h636v-141z" />
<glyph unicode="&#x22bb;" d="M60 1082h178l274 -628l274 628h178l-452 -984zM120 0h784v-141h-784v141z" />
<glyph unicode="&#x22bc;" d="M512 1150l452 -984h-178l-274 628l-274 -628h-178zM120 1386h784v-141h-784v141z" />
<glyph unicode="&#x22bd;" d="M120 1386h784v-141h-784v141zM512 98l452 984h-178l-274 -628l-274 628h-178z" />
<glyph unicode="&#x22be;" d="M328 1148v-299q199 -22 346.5 -169.5t169.5 -346.5h95v-151h-761v966h150zM682 333q-20 133 -120 233t-234 122v-355h354z" />
<glyph unicode="&#x22bf;" d="M14 182l910 909v-909h-910zM789 327v432l-434 -432h434z" />
<glyph unicode="&#x22c0;" d="M1025 -158h-182l-331 1106l-339 -1106h-174l513 1649z" />
<glyph unicode="&#x22c1;" d="M512 -274l-513 1649h174l339 -1106l331 1106h182z" />
<glyph unicode="&#x22c2;" d="M260 -158h-161v1059q0 244 123 366.5t290 122.5t289.5 -122.5t122.5 -366.5v-1059h-160v1059q0 174 -69.5 251.5t-182.5 77.5t-182.5 -77.5t-69.5 -251.5v-1059z" />
<glyph unicode="&#x22c3;" d="M260 316q0 -174 69.5 -252t182.5 -78t182.5 78t69.5 252v1065h160v-1065q0 -245 -122.5 -367.5t-289.5 -122.5t-290 122.5t-123 367.5v1065h161v-1065z" />
<glyph unicode="&#x22c4;" d="M334 607l178 -255l178 255l-178 256zM143 607l369 517l369 -517l-369 -517z" />
<glyph unicode="&#x22c5;" d="M654 607q0 -59 -41.5 -100t-100.5 -41t-100.5 41t-41.5 100q0 60 41.5 102t100.5 42t100.5 -42t41.5 -102z" />
<glyph unicode="&#x22c6;" d="M952 774l-267 -200l110 -322l-282 199l-284 -199l110 322l-269 200h337l106 306l104 -306h335z" />
<glyph unicode="&#x22c7;" d="M938 533h-291l245 -246l-101 -101l-279 282l-279 -282l-101 101l245 246h-291v150h289l-243 244l101 101l279 -282l279 282l101 -101l-243 -244h289v-150zM642 42q0 -55 -38 -93t-92 -38t-92 38t-38 93q0 54 38 91.5t92 37.5t92 -37.5t38 -91.5zM642 1173 q0 -54 -38 -91.5t-92 -37.5t-92 37.5t-38 91.5q0 55 38 93.5t92 38.5t92 -38.5t38 -93.5z" />
<glyph unicode="&#x22c8;" d="M99 104v1009l413 -415l412 415v-1009l-412 415zM791 420v378l-189 -189zM233 797v-377l188 188z" />
<glyph unicode="&#x22c9;" d="M924 1094v-199l-289 -286l289 -287v-199l-393 396l-412 -415v1009l412 -415zM262 773v-328l166 163z" />
<glyph unicode="&#x22ca;" d="M493 698l412 415v-1009l-412 415l-394 -396v199l290 287l-290 286v199zM596 608l166 -163v328z" />
<glyph unicode="&#x22cb;" d="M963 304v-219l-412 416l-413 -416v219l305 305l-305 304v219z" />
<glyph unicode="&#x22cc;" d="M886 1132v-219l-305 -304l305 -305v-219l-413 416l-412 -416v219z" />
<glyph unicode="&#x22cd;" d="M86 500h852v-141h-852v141zM693 767q-50 0 -160 -68.5t-199 -68.5q-124 0 -250 119v163h38q114 -121 212 -121q64 0 170.5 68t188.5 68q121 0 247 -119v-163h-38q-114 122 -209 122z" />
<glyph unicode="&#x22ce;" d="M589 144h-154q-64 539 -393 903v23h178q190 -206 292 -600q102 394 292 600h178v-23q-329 -364 -393 -903z" />
<glyph unicode="&#x22cf;" d="M589 1070q64 -539 393 -902v-24h-178q-190 206 -292 600q-102 -394 -292 -600h-178v24q329 363 393 902h154z" />
<glyph unicode="&#x22d0;" d="M335 653q0 198 111 302t291 104h171v-135h-171q-267 0 -267 -271t267 -271h171v-135h-171q-180 0 -291 104t-111 302zM88 653q0 300 177.5 476.5t471.5 176.5h171v-141h-171q-234 0 -371 -134.5t-137 -377.5t137 -377.5t371 -134.5h171v-141h-171q-294 0 -471.5 176.5 t-177.5 476.5z" />
<glyph unicode="&#x22d1;" d="M689 653q0 -198 -111 -302t-291 -104h-171v135h171q267 0 267 271t-267 271h-171v135h171q180 0 291 -104t111 -302zM936 653q0 -300 -177.5 -476.5t-471.5 -176.5h-171v141h171q234 0 371 134.5t137 377.5t-137 377.5t-371 134.5h-171v141h171q294 0 471.5 -176.5 t177.5 -476.5z" />
<glyph unicode="&#x22d2;" d="M443 0h-135v817q0 140 59 201t145 61t145 -61t59 -201v-817h-135v817q0 126 -69 126t-69 -126v-817zM202 0h-141v817q0 244 131.5 376.5t319.5 132.5t319.5 -132.5t131.5 -376.5v-817h-141v817q0 183 -90 275.5t-220 92.5t-220 -92.5t-90 -275.5v-817z" />
<glyph unicode="&#x22d3;" d="M443 489q0 -126 69 -126t69 126v817h135v-817q0 -140 -59 -201t-145 -61t-145 61t-59 201v817h135v-817zM202 489q0 -183 90 -275.5t220 -92.5t220 92.5t90 275.5v817h141v-817q0 -244 -131.5 -376.5t-319.5 -132.5t-319.5 132.5t-131.5 376.5v817h141v-817z" />
<glyph unicode="&#x22d4;" d="M437 1526h150v-423q138 -20 244 -125q132 -134 132 -339v-639h-155v600q0 272 -221 336v-936h-150v936q-221 -64 -221 -336v-600h-155v600q0 244 132 378q105 105 244 125v423z" />
<glyph unicode="&#x22d5;" d="M939 349h-177v-515h-160v515h-180v-515h-160v515h-178v145h178v227h-178v141h178v514h160v-514h180v514h160v-514h177v-141h-177v-227h177v-145zM602 494v227h-180v-227h180z" />
<glyph unicode="&#x22d6;" d="M263 607l615 -326v-183l-829 451v116l829 451v-182zM888 607q0 -54 -39 -91.5t-93 -37.5t-91.5 37.5t-37.5 91.5q0 55 37.5 93.5t91.5 38.5t93 -38.5t39 -93.5z" />
<glyph unicode="&#x22d7;" d="M146 934v182l829 -451v-116l-829 -451v183l615 326zM136 607q0 55 38.5 93.5t93.5 38.5q54 0 91.5 -38.5t37.5 -93.5q0 -54 -37.5 -91.5t-91.5 -37.5q-55 0 -93.5 37.5t-38.5 91.5z" />
<glyph unicode="&#x22d8;" d="M110 607l262 -307v-202l-382 451v116l382 451v-202zM418 607l262 -307v-202l-437 509l437 509v-202zM726 607l262 -307v-202l-437 509l437 509v-202z" />
<glyph unicode="&#x22d9;" d="M652 914v202l382 -451v-116l-382 -451v202l262 307zM344 914v202l437 -509l-437 -509v202l262 307zM36 914v202l437 -509l-437 -509v202l262 307z" />
<glyph unicode="&#x22da;" d="M146 305v182l732 -317v-196l-732 -317v182l579 233zM878 536h-732v141h732v-141zM299 1140l579 -233v-182l-732 317v196l732 317v-182z" />
<glyph unicode="&#x22db;" d="M299 72l579 -233v-182l-732 317v196l732 317v-182zM146 677h732v-141h-732v141zM146 1373v182l732 -317v-196l-732 -317v182l579 233z" />
<glyph unicode="&#x22dc;" d="M859 1052h-732v157h732v-157zM859 128v-182l-732 402v215l732 402v-182l-609 -328z" />
<glyph unicode="&#x22dd;" d="M165 1209h732v-157h-732v157zM774 455l-609 328v182l732 -402v-215l-732 -402v182z" />
<glyph unicode="&#x22de;" d="M78 909q558 24 678 474h181q-177 -614 -859 -614v140zM78 616q638 10 839 450v-292q-189 -234 -594 -236q544 -32 614 -538h-181q-50 410 -678 460v156z" />
<glyph unicode="&#x22df;" d="M946 909v-140q-682 0 -859 614h181q120 -450 678 -474zM946 616v-156q-628 -50 -678 -460h-181q70 506 614 538q-405 2 -594 236v292q201 -440 839 -450z" />
<glyph unicode="&#x22e0;" d="M78 767v156q165 13 291 51l164 449h150l-135 -369q182 116 208 329h181q-59 -428 -458 -517l-11 -30q296 -38 449 -227v-292q-140 306 -491 403l-52 -141q428 -112 563 -579h-181q-91 341 -434 437l-174 -477h-150l185 505q-51 6 -105 9v140q81 0 156 -9l53 145 q-98 15 -209 17z" />
<glyph unicode="&#x22e1;" d="M489 -40h-150l133 364q-149 -116 -204 -324h-181q119 413 467 548l65 178q-368 -94 -512 -409v292q180 222 555 235l2 4q-510 46 -577 535h181q39 -323 437 -423l169 463h150l-179 -489q48 -7 101 -11v-156q-87 -2 -166 -11l-59 -162q104 20 225 20v-140 q-162 -7 -288 -50z" />
<glyph unicode="&#x22e2;" d="M138 145h179l68 228h-240v1116h574l59 198h136l-59 -198h73v-144h-116l-247 -827h363v-145h-407l-68 -228h475v-145h-518l-59 -198h-136l59 198h-136v145zM315 518h114l247 827h-361v-827z" />
<glyph unicode="&#x22e3;" d="M784 1687l-59 -198h154v-1116h-488l-68 -228h563v-145h-606l-59 -198h-136l59 198h-48v145h91l68 228h-159v145h203l247 827h-450v144h493l59 198h136zM709 518v827h-27l-247 -827h274z" />
<glyph unicode="&#x22e4;" d="M928 518v-145h-783v1116h783v-144h-613v-827h613zM138 145h347l79 170h164l-79 -170h279v-145h-345l-78 -170h-165l78 170h-280v145z" />
<glyph unicode="&#x22e5;" d="M463 -170h-165l224 485h164zM96 145h790v-145h-790v145zM709 518v827h-613v144h783v-1116h-783v145h613z" />
<glyph unicode="&#x22e6;" d="M250 869l609 -328v-182l-732 402v215l732 402v-182zM319 116q-76 0 -160 -122h-38v163q96 119 198 119q68 0 147 -48l84 182h144l-115 -251q44 -19 79 -19q79 0 163 122h38v-164q-96 -118 -201 -118q-68 0 -143 40l-88 -192h-146l120 261q-51 27 -82 27z" />
<glyph unicode="&#x22e7;" d="M171 1196v182l732 -402v-215l-732 -402v182l609 328zM363 116q-76 0 -160 -122h-38v163q96 119 198 119q68 0 147 -48l84 182h144l-115 -251q44 -19 79 -19q79 0 163 122h38v-164q-96 -118 -201 -118q-68 0 -143 40l-88 -192h-146l120 261q-51 27 -82 27z" />
<glyph unicode="&#x22e8;" d="M68 831v156q638 50 688 460h181q-70 -506 -614 -538q544 -32 614 -538h-181q-50 410 -688 460zM427 -172h-146l119 258q-72 30 -104 30q-86 0 -190 -122h-38v163q116 119 228 119q68 0 170 -47l84 181h144l-109 -238q77 -32 121 -32q89 0 193 122h38v-164 q-116 -118 -231 -118q-76 0 -187 50z" />
<glyph unicode="&#x22e9;" d="M956 831q-638 -50 -688 -460h-181q70 506 614 538q-544 32 -614 538h181q50 -410 688 -460v-156zM446 -172h-146l119 258q-72 30 -104 30q-86 0 -190 -122h-38v163q116 119 228 119q68 0 170 -47l84 181h144l-109 -238q77 -32 121 -32q89 0 193 122h38v-164 q-116 -118 -231 -118q-76 0 -187 50z" />
<glyph unicode="&#x22ea;" d="M411 -114h-150l137 477l-408 243l577 343l110 381h150l-79 -274l120 72v-1043l-342 202zM708 366v480l-25 -15l-111 -383zM311 606l134 -81l56 196z" />
<glyph unicode="&#x22eb;" d="M613 1330h150l-137 -477l408 -243l-577 -343l-110 -381h-150l79 274l-120 -72v1043l342 -202zM316 850v-480l25 15l111 383zM713 610l-134 81l-56 -196z" />
<glyph unicode="&#x22ec;" d="M868 0h-462l-46 -160h-150l46 160h-198v141h238l99 347l-405 241l571 340l101 351h151l-70 -243l125 74v-1043l-344 204l-78 -271h422v-141zM708 489v480l-30 -18l-108 -379zM311 729l131 -79l54 191z" />
<glyph unicode="&#x22ed;" d="M156 141h80l40 138l-120 -71v1043l340 -202l106 371h151l-128 -448l409 -243l-577 -343l-71 -245h580v-141h-620l-46 -160h-150l46 160h-40v141zM316 969v-480l24 14l110 385zM713 729l-135 81l-56 -197z" />
<glyph unicode="&#x22ee;" d="M642 22q0 -54 -38.5 -92t-92.5 -38t-91.5 38t-37.5 92q0 55 37.5 93t91.5 38t92.5 -38t38.5 -93zM642 608q0 -54 -38 -91.5t-92 -37.5t-92 37.5t-38 91.5q0 55 38 93.5t92 38.5t92 -38.5t38 -93.5zM642 1195q0 -55 -38 -92.5t-92 -37.5t-92 37.5t-38 92.5t38 93t92 38 t92 -38t38 -93z" />
<glyph unicode="&#x22ef;" d="M895 739q54 0 91.5 -39t37.5 -93t-37.5 -91.5t-91.5 -37.5q-56 0 -94 37.5t-38 91.5t38 93t94 39zM512 739q54 0 91.5 -38.5t37.5 -92.5t-37.5 -92t-91.5 -38q-55 0 -93 38t-38 92t38 92.5t93 38.5zM131 739q54 0 92 -38.5t38 -92.5t-38 -92t-92 -38q-55 0 -93 38t-38 92 t38 92.5t93 38.5z" />
<glyph unicode="&#x22f0;" d="M425 22q0 -54 -38.5 -92t-92.5 -38t-92 38t-38 92q0 55 38 93t92 38t92.5 -38t38.5 -93zM642 608q0 -54 -38 -91.5t-92 -37.5t-92 37.5t-38 91.5q0 55 38 93.5t92 38.5t92 -38.5t38 -93.5zM860 1195q0 -55 -38.5 -92.5t-92.5 -37.5t-92 37.5t-38 92.5t38 93t92 38 t92.5 -38t38.5 -93z" />
<glyph unicode="&#x22f1;" d="M599 22q0 55 38.5 93t92.5 38t92 -38t38 -93q0 -54 -38 -92t-92 -38t-92.5 38t-38.5 92zM382 608q0 55 38 93.5t92 38.5t92 -38.5t38 -93.5q0 -54 -38 -91.5t-92 -37.5t-92 37.5t-38 91.5zM164 1195q0 55 38.5 93t92.5 38t92 -38t38 -93t-38 -92.5t-92 -37.5t-92.5 37.5 t-38.5 92.5z" />
<glyph unicode="&#x22f2;" d="M389 584q21 -182 159.5 -310.5t388.5 -128.5v-145q-327 0 -513 175t-206 409h-184v144h184q20 228 206 403t513 175v-145q-250 0 -388.5 -127t-159.5 -306h548v-144h-548z" />
<glyph unicode="&#x22f3;" d="M728 401v182h-339q21 -191 159.5 -314.5t340.5 -123.5v-145q-279 0 -465 175t-206 408h-184v145h184q20 228 206 403t465 175v-145q-202 0 -340.5 -123t-159.5 -310h339v177h161v-504h-161z" />
<glyph unicode="&#x22f4;" d="M34 543v145h147q20 139 125 244q134 132 339 132h244v-155h-205q-272 0 -336 -221h380v90h161v-325h-161v90h-380q64 -225 336 -225h205v-156h-205q-244 0 -378 132q-105 105 -125 249h-147z" />
<glyph unicode="&#x22f5;" d="M737 1566q0 -54 -38.5 -92t-92.5 -38t-91.5 38t-37.5 92q0 55 37.5 93t91.5 38t92.5 -38t38.5 -93zM242 583q21 -181 159.5 -309.5t370.5 -128.5h117v-145h-117q-309 0 -506 189.5t-197 463.5q0 277 197 465t506 188h117v-145h-117q-232 0 -370.5 -127t-159.5 -306h647 v-145h-647z" />
<glyph unicode="&#x22f6;" d="M889 1497h-725v141h725v-141zM242 583q21 -181 159.5 -309.5t370.5 -128.5h117v-145h-117q-309 0 -506 189.5t-197 463.5q0 277 197 465t506 188h117v-145h-117q-232 0 -370.5 -127t-159.5 -306h647v-145h-647z" />
<glyph unicode="&#x22f7;" d="M898 1072h-743v142h743v-142zM899 145v-144h-311q-245 0 -377 123.5t-132 305.5q0 187 132 309t377 122h311v-146h-311q-263 0 -327 -210h638v-144h-638q54 -216 327 -216h311z" />
<glyph unicode="&#x22f8;" d="M889 -332h-725v141h725v-141zM242 583q21 -181 159.5 -309.5t370.5 -128.5h117v-145h-117q-309 0 -506 189.5t-197 463.5q0 277 197 465t506 188h117v-145h-117q-232 0 -370.5 -127t-159.5 -306h647v-145h-647z" />
<glyph unicode="&#x22f9;" d="M231 653q0 -49 7 -94h640v-156h-587q34 -63 89 -115q149 -143 381 -143h117v-145h-117q-309 0 -506 189.5t-197 463.5q0 277 197 465t506 188h117v-145h-117q-232 0 -381 -142q-52 -50 -86 -109h584v-156h-639q-8 -48 -8 -101z" />
<glyph unicode="&#x22fa;" d="M87 584v144h548q-21 179 -159.5 306t-388.5 127v145q327 0 513 -175t206 -403h184v-144h-184q-20 -234 -206 -409t-513 -175v145q250 0 388.5 128.5t159.5 310.5h-548z" />
<glyph unicode="&#x22fb;" d="M135 401v504h161v-177h339q-21 187 -159.5 310t-340.5 123v145q279 0 465 -175t206 -403h184v-145h-184q-20 -233 -206 -408t-465 -175v145q202 0 340.5 123.5t159.5 314.5h-339v-182h-161z" />
<glyph unicode="&#x22fc;" d="M843 543q-20 -144 -125 -249q-134 -132 -378 -132h-205v156h205q272 0 336 225h-380v-95h-161v330h161v-90h380q-64 221 -336 221h-205v155h244q205 0 339 -132q105 -105 125 -244h147v-145h-147z" />
<glyph unicode="&#x22fd;" d="M135 1638h725v-141h-725v141zM135 583v145h647q-21 179 -159.5 306t-370.5 127h-117v145h117q309 0 506 -188t197 -465t-197 -465t-506 -188h-117v145h117q232 0 370.5 128.5t159.5 309.5h-647z" />
<glyph unicode="&#x22fe;" d="M126 1214h743v-142h-743v142zM436 145q273 0 327 216h-638v144h638q-64 210 -327 210h-311v146h311q245 0 377 -122t132 -309q0 -182 -132 -305.5t-377 -123.5h-311v144h311z" />
<glyph unicode="&#x22ff;" d="M864 0h-684v1217h684v-145h-514v-381h504v-145h-504v-401h514v-145z" />
<glyph unicode="&#x2318;" d="M577 696v131h-130v-131h130zM447 505q0 -77 -55.5 -131t-133.5 -54t-132.5 54.5t-54.5 133.5q0 76 54.5 132t130.5 56h78v131h-78q-77 0 -131 55.5t-54 132.5q0 79 54.5 133.5t132.5 54.5t133.5 -54.5t55.5 -131.5v-78h130v78q0 78 55.5 132t133.5 54t132.5 -54.5 t54.5 -133.5q0 -77 -54 -132.5t-131 -55.5h-78v-131h78q77 0 131 -55.5t54 -132.5q0 -79 -54 -133.5t-133 -54.5q-78 0 -133.5 53.5t-55.5 131.5v78h-130v-78zM334 1015q0 32 -22 54.5t-54 22.5q-31 0 -53 -23t-22 -54t22 -53.5t54 -22.5h75v76zM259 583q-31 0 -53.5 -22 t-22.5 -53q0 -32 22 -54.5t54 -22.5q31 0 53 22t22 54v76h-75zM766 939q31 0 53 22.5t22 53.5q0 32 -22 54.5t-53 22.5q-32 0 -54 -22.5t-22 -54.5v-76h76zM690 507q0 -32 22 -54t54 -22t53.5 22t21.5 55q0 30 -22 52.5t-53 22.5h-76v-76z" />
<glyph unicode="&#x2325;" d="M77 1198h287l381 -729h202v-141h-287l-381 729h-202v141zM605 1198h342v-141h-342v141z" />
<glyph unicode="&#x2326;" d="M33 328v871h718l285 -436l-285 -435h-718zM684 1081h-532v-635h532l211 317zM292 509l-88 87l168 166l-168 167l88 87l167 -167l167 167l88 -87l-168 -167l168 -166l-88 -87l-167 167z" />
<glyph unicode="&#x2327;" d="M186 327h-153v872h153l-79 138l108 68l119 -206h356l119 206l108 -68l-79 -138h153v-872h-154l80 -138l-108 -67l-120 205h-355l-119 -205l-108 67zM585 763l178 -308h102v616h-101zM438 763l-178 308h-101v-616h101zM408 1071l104 -180l104 180h-208zM512 635l-104 -180 h207z" />
<glyph unicode="&#x232b;" d="M273 328l-285 435l285 436h718v-871h-718zM128 763l212 -317h532v635h-532zM565 676l-167 -167l-88 87l168 166l-168 167l88 87l167 -167l167 167l88 -87l-168 -167l168 -166l-88 -87z" />
<glyph unicode="&#x2386;" d="M450 550v155h-412v116h412v156l214 -214zM849 764l-366 366l-208 -207h-181l389 389l548 -548l-548 -548l-389 390h181l208 -208z" />
<glyph unicode="&#x2387;" d="M77 469h202l381 729h287v-141h-202l-381 -729h-287v141zM605 469h342v-141h-342v141z" />
<glyph unicode="&#x23cf;" d="M952 718h-881l441 528zM952 336h-881v240h881v-240z" />
<glyph unicode="&#x23d0;" d="M441 1590h141v-1654h-141v1654z" />
<glyph unicode="&#x2400;" d="M336 1119h103v-452q0 -74 17 -94.5t43 -20.5t43.5 20.5t17.5 94.5v452h103v-452q0 -107 -47.5 -159t-116.5 -52q-68 0 -115.5 51.5t-47.5 159.5v452zM863 -154v-95h-310v654h101v-559h209zM389 1832h101v-650h-106l-135 423l12 -282v-141h-101v650h106l136 -425l-13 310 v115z" />
<glyph unicode="&#x2401;" d="M352 1264q29 0 49 18.5t20 56.5q0 28 -38 66l-131 124q-60 57 -60 145q0 73 47 119.5t120 46.5q101 0 171 -106l-81 -58q-37 68 -90 68q-30 0 -47 -16.5t-17 -53.5q0 -39 30 -68l129 -123q70 -66 70 -144q0 -75 -48.5 -122.5t-123.5 -47.5q-125 0 -190 124l79 56 q43 -85 111 -85zM688 895v-199q0 -128 -46 -184t-120 -56q-71 0 -119 56t-48 184v199q0 123 46 177.5t121 54.5q73 0 119.5 -54.5t46.5 -177.5zM585 895q0 86 -18 113q-16 23 -45 23q-30 0 -47 -24.5t-17 -111.5v-199q0 -92 17 -120q17 -24 47 -24q28 0 45.5 26.5 t17.5 117.5v199zM534 -249v654h103v-256h122v256h102v-654h-102v302h-122v-302h-103z" />
<glyph unicode="&#x2402;" d="M345 1264q30 0 50 18.5t20 56.5q0 28 -39 66l-131 124q-60 57 -60 145q0 73 47 119.5t122 46.5q99 0 170 -106l-81 -58q-37 68 -89 68q-30 0 -48 -16.5t-18 -53.5q0 -39 30 -68l130 -123q69 -66 69 -144q0 -75 -48 -122.5t-123 -47.5q-126 0 -190 124l78 56 q43 -85 111 -85zM340 1023v96h351v-96h-125v-559h-101v559h-125zM691 -18l-10 -25l-81 -206h-85v67l121 260l-121 262v65h85l92 -231l9 25l82 206h85v-65l-120 -262l120 -260v-67h-85z" />
<glyph unicode="&#x2403;" d="M276 1736v-169h157v-97h-157v-197h213v-96h-314v655h314v-96h-213zM321 1023v96h350v-96h-124v-559h-102v559h-124zM671 -18l-9 -25l-81 -206h-86v67l120 260l-120 262v65h86l91 -231l10 25l81 206h86v-65l-122 -262l122 -260v-67h-86z" />
<glyph unicode="&#x2404;" d="M277 1736v-169h157v-97h-157v-197h212v-96h-313v655h313v-96h-212zM663 895v-199q0 -128 -46 -184t-120 -56q-70 0 -118 56t-48 184v199q0 123 46 177t120 54t120 -54t46 -177zM561 895q0 86 -19 113q-16 23 -45 23q-30 0 -46 -23q-18 -26 -18 -113v-199q0 -92 18 -120 q17 -24 46 -24t46.5 26.5t17.5 117.5v199zM497 309v96h351v-96h-124v-558h-102v558h-125z" />
<glyph unicode="&#x2405;" d="M282 1736v-170h157v-96h-157v-198h212v-96h-313v656h313v-96h-212zM556 -200q-44 54 -44 178v199q0 123 46 179t119 56q74 0 120 -56t46 -179v-199q0 -156 -79 -211l47 -124h-108l-38 100q-67 5 -109 57zM613 176v-194q0 -92 19 -120q16 -24 45 -24t46 24q18 28 18 120 v194q0 88 -18 116q-18 25 -46 25q-29 0 -46.5 -26t-17.5 -115zM567 1118h101v-649h-106l-135 422l12 -281v-141h-101v649h105l137 -424l-13 309v115z" />
<glyph unicode="&#x2406;" d="M156 1177v164l118 491h98l119 -491v-164h-102v144h-132v-144h-101zM323 1649l-2 -10l-47 -222h99zM527 1126q103 0 164 -124l-86 -45q-33 74 -78 74q-36 0 -58.5 -28.5t-22.5 -139.5v-139q0 -115 22.5 -143.5t58.5 -28.5q45 0 83 77l86 -50q-70 -123 -169 -123 q-82 0 -132 58t-50 210v139q0 148 50.5 205.5t131.5 57.5zM718 88l150 -280v-57h-84l-143 273v-273h-102v654h102v-256l143 256h84v-53z" />
<glyph unicode="&#x2407;" d="M298 1177h-135v655h140q85 0 129 -46t44 -122q0 -94 -69 -131q86 -33 86 -151q0 -102 -54.5 -153.5t-140.5 -51.5zM296 1575q46 0 66 36q11 21 11 53q0 72 -70 72h-38v-161h31zM297 1273q56 0 76 28q16 23 16 81q0 97 -70 97h-54v-206h32zM453 1023v-170h157v-96h-157 v-198h212v-95h-313v655h313v-96h-212zM860 -154v-95h-310v654h101v-559h209z" />
<glyph unicode="&#x2408;" d="M390 820h-132v648h138q84 0 127.5 -45t43.5 -120q0 -94 -69 -130q84 -32 84 -149q0 -102 -53 -153t-139 -51zM388 1214q47 0 66 37q11 20 11 52q0 71 -69 71h-38v-160h30zM389 915q55 0 75 28q16 23 16 81q0 96 -69 96h-53v-205h31zM588 200q29 0 49.5 18.5t20.5 54.5 q0 28 -39 66l-128 123q-59 57 -59 144q0 72 46 118t118 46q99 0 169 -105l-80 -57q-37 67 -88 67q-30 0 -49 -18q-16 -16 -16 -51q0 -39 30 -67l128 -123q68 -65 68 -143q0 -74 -47 -121t-123 -47q-122 0 -186 124l77 54q43 -83 109 -83z" />
<glyph unicode="&#x2409;" d="M260 820v648h100v-254h121v254h101v-648h-101v300h-121v-300h-100zM417 667v95h347v-95h-124v-554h-99v554h-124z" />
<glyph unicode="&#x240a;" d="M582 915v-95h-305v648h100v-553h205zM531 404v-291h-100v649h316v-95h-216v-168h173v-95h-173z" />
<glyph unicode="&#x240b;" d="M526 1468h93v-61l-133 -587h-105l-134 587v61h93l93 -467zM430 667v95h347v-95h-123v-554h-100v554h-124z" />
<glyph unicode="&#x240c;" d="M369 1111v-291h-99v648h315v-94h-216v-167h174v-96h-174zM539 404v-291h-100v649h315v-95h-215v-168h173v-95h-173z" />
<glyph unicode="&#x240d;" d="M439 1478q102 0 162 -125l-85 -44q-33 73 -76 73q-36 0 -58.5 -28t-22.5 -138v-139q0 -114 24 -143q20 -27 57 -27q43 0 81 77l84 -50q-69 -122 -166 -122q-80 0 -130 57.5t-50 207.5v139q0 147 50 204.5t130 57.5zM531 113h-99v649h147q87 0 130.5 -47.5t43.5 -125.5 q0 -123 -93 -167l104 -244v-65h-85l-114 291h-34v-291zM531 499h51q68 0 68 90q0 79 -71 79h-48v-169z" />
<glyph unicode="&#x240e;" d="M440 907q29 0 49.5 18.5t20.5 54.5q0 29 -39 66l-128 123q-59 57 -59 144q0 72 46 118.5t118 46.5q99 0 169 -106l-80 -57q-37 67 -88 67q-30 0 -47.5 -16t-17.5 -53q0 -38 30 -67l128 -123q69 -65 69 -143q0 -74 -47.5 -121t-123.5 -47q-122 0 -186 124l77 54 q43 -83 109 -83zM769 540v-197q0 -127 -45.5 -182.5t-118.5 -55.5q-69 0 -116.5 55.5t-47.5 182.5v197q0 123 45.5 177t118.5 54t118.5 -54t45.5 -177zM668 540q0 86 -19 112q-16 23 -44 23q-29 0 -46 -24t-17 -111v-197q0 -92 18 -119q16 -24 45 -24q28 0 45.5 26t17.5 117 v197z" />
<glyph unicode="&#x240f;" d="M450 907q29 0 49.5 18.5t20.5 54.5q0 29 -39 66l-128 124q-59 56 -59 143q0 72 45.5 118.5t119.5 46.5q97 0 168 -106l-80 -57q-37 67 -88 67q-30 0 -47.5 -16.5t-17.5 -52.5q0 -38 30 -67l128 -123q68 -65 68 -143q0 -74 -47 -121t-122 -47q-124 0 -186 124l76 54 q43 -83 109 -83zM490 668v94h248v-94h-73v-459h93v-96h-289v96h95v459h-74z" />
<glyph unicode="&#x2410;" d="M293 1832q99 0 158.5 -68.5t59.5 -195.5v-120q0 -127 -59 -199t-159 -72h-117v655h117zM276 1273h17q52 0 83 42t31 133v120q0 168 -114 168h-17v-463zM691 559v-95h-309v655h101v-560h208zM637 309v-169h156v-96h-156v-198h211v-95h-313v654h313v-96h-211z" />
<glyph unicode="&#x2411;" d="M329 1832q100 0 159 -68.5t59 -195.5v-120q0 -127 -58.5 -199t-159.5 -72h-116v655h116zM313 1273h16q53 0 83.5 42t30.5 133v120q0 168 -114 168h-16v-463zM568 1126q102 0 162 -124l-85 -45q-33 74 -77 74q-37 0 -58.5 -28.5t-21.5 -139.5v-139q0 -115 21.5 -143.5 t58.5 -28.5q44 0 82 78l85 -51q-69 -123 -167 -123q-81 0 -131.5 58t-50.5 210v139q0 148 50.5 205.5t131.5 57.5zM811 405v-654h-101v520l-94 -80l-56 78l154 136h97z" />
<glyph unicode="&#x2412;" d="M295 1832q99 0 158 -68.5t59 -195.5v-120q0 -127 -58.5 -199t-158.5 -72h-118v655h118zM278 1273h17q52 0 83 42t31 133v120q0 168 -114 168h-17v-463zM534 1126q103 0 163 -124l-86 -45q-32 74 -77 74q-37 0 -59 -28.5t-22 -139.5v-139q0 -115 22 -143.5t59 -28.5 q45 0 82 78l86 -51q-69 -123 -168 -123q-81 0 -131.5 58t-50.5 210v139q0 148 50.5 205.5t131.5 57.5zM682 318q-53 0 -84 -85l-87 55q69 125 171 125q69 0 117 -50t48 -120q0 -58 -47 -135l-159 -262h206v-95h-322v93l196 323q24 41 24 76q0 75 -63 75z" />
<glyph unicode="&#x2413;" d="M295 1832q100 0 159 -68.5t59 -195.5v-120q0 -127 -58.5 -199t-159.5 -72h-117v655h117zM279 1272h16q53 0 84 42.5t31 133.5v120q0 168 -115 168h-16v-464zM534 1126q104 0 164 -124l-86 -45q-32 74 -77 74q-37 0 -59 -28.5t-22 -139.5v-139q0 -115 22 -143.5t59 -28.5 q45 0 82 77l85 -50q-69 -123 -168 -123q-80 0 -130.5 58t-50.5 210v139q0 147 50.5 205t130.5 58zM668 48h-57v96h57q26 0 44 19.5t18 68.5q0 47 -18.5 66.5t-43.5 19.5q-53 0 -88 -86l-82 57q69 124 171 124q77 0 122 -54q43 -50 43 -127q0 -98 -70 -134q82 -35 82 -147 q0 -101 -50 -155t-127 -54q-115 0 -182 125l81 57q36 -86 100 -86q32 0 53 23t21 90q0 59 -22 78t-52 19z" />
<glyph unicode="&#x2414;" d="M295 1832q100 0 159 -68.5t59 -195.5v-120q0 -127 -58.5 -199t-159.5 -72h-117v655h117zM279 1273h16q53 0 84 42t31 133v120q0 168 -115 168h-16v-463zM534 1126q104 0 164 -124l-86 -45q-32 74 -77 74q-37 0 -59 -28.5t-22 -139.5v-139q0 -115 22 -143.5t59 -28.5 q45 0 82 78l85 -51q-69 -123 -168 -123q-80 0 -130.5 58t-50.5 210v139q0 148 50.5 205.5t130.5 57.5zM497 -84v101l199 388h111v-392h39v-97h-39v-165h-102v165h-208zM596 13h109v211z" />
<glyph unicode="&#x2415;" d="M331 464v163l119 492h98l119 -492v-163h-102v144h-132v-144h-102zM718 88l150 -280v-57h-85l-143 273v-273h-101v654h101v-256l143 256h85v-53zM498 936l-1 -10l-48 -222h99zM388 1832h102v-649h-106l-136 422l12 -282v-140h-101v649h106l136 -424l-13 310v114z" />
<glyph unicode="&#x2416;" d="M350 1264q29 0 49 18.5t20 56.5q0 28 -38 66l-131 124q-60 57 -60 145q0 73 46.5 119.5t120.5 46.5q101 0 171 -106l-81 -58q-37 68 -90 68q-30 0 -49 -18q-15 -15 -15 -52q0 -39 30 -68l129 -123q70 -66 70 -144q0 -75 -48.5 -122.5t-123.5 -47.5q-125 0 -190 124l79 56 q43 -85 111 -85zM614 1119h86v-65l-130 -301v-289h-101v289l-130 301v65h85l96 -251zM761 405h102v-648h-107l-135 421l12 -281v-140h-101v648h106l136 -423l-13 309v114z" />
<glyph unicode="&#x2417;" d="M279 1736v-169h157v-97h-157v-197h212v-96h-313v655h313v-96h-212zM323 1023v96h350v-96h-124v-559h-102v559h-124zM650 -249h-133v654h140q85 0 129 -46t44 -120q0 -96 -70 -133q86 -32 86 -149q0 -104 -54 -155t-142 -51zM649 149q47 0 66 36q11 20 11 54q0 70 -69 70 h-39v-160h31zM650 -154q55 0 75 28q18 25 18 83q0 96 -72 96h-53v-207h32z" />
<glyph unicode="&#x2418;" d="M361 1841q102 0 163 -123l-86 -45q-33 73 -77 73q-35 0 -57.5 -28t-22.5 -138v-139q0 -114 23 -143q21 -26 57 -26q45 0 81 77l85 -51q-68 -121 -166 -121q-81 0 -130.5 57.5t-49.5 206.5v139q0 146 50 203.5t130 57.5zM340 477v163l118 486h96l118 -486v-163h-101v144 h-130v-144h-101zM505 945q-11 -61 -47 -229h96zM743 420h100v-649h-105l-135 422l11 -281v-141h-100v649h105l136 -424l-12 309v115z" />
<glyph unicode="&#x2419;" d="M374 1379v-166h152v-94h-152v-194h206v-94h-306v642h306v-94h-206zM549 400l-45 167l9 -259v-178h-99v644h97l71 -201l71 201h97v-644h-100v178l9 258l-44 -166h-66z" />
<glyph unicode="&#x241a;" d="M350 1271q29 0 49 18.5t20 55.5q0 28 -39 65l-129 123q-59 57 -59 144q0 72 46 118t119 46q100 0 169 -105l-80 -57q-36 67 -89 67q-28 0 -46 -15.5t-18 -53.5q0 -39 30 -67l129 -122q68 -66 68 -143q0 -75 -47.5 -121.5t-122.5 -46.5q-124 0 -188 123l78 55 q43 -84 110 -84zM355 1126h101v-447q0 -73 17.5 -93.5t43.5 -20.5q24 0 42 21t18 93v447h101v-447q0 -106 -47 -158t-114 -52q-69 0 -115.5 52t-46.5 158v447zM667 -229h-133v649h139q84 0 127.5 -46t43.5 -119q0 -95 -68 -131q85 -32 85 -148q0 -103 -54 -154t-140 -51z M665 165q45 0 64 36q12 20 12 54q0 70 -69 70h-37v-160h30zM667 -133q54 0 74 28q16 23 16 81q0 95 -69 95h-53v-204h32z" />
<glyph unicode="&#x241b;" d="M271 1738v-167h155v-96h-155v-196h210v-95h-311v649h311v-95h-210zM493 565q29 0 49 18.5t20 54.5q0 29 -38 65l-130 124q-59 57 -59 143q0 73 46.5 119t118.5 46q100 0 170 -105l-80 -58q-37 67 -89 67q-29 0 -46.5 -15.5t-17.5 -53.5t30 -67l128 -122q69 -65 69 -142 q0 -76 -48 -123t-122 -47q-125 0 -189 124l78 55q43 -83 110 -83zM687 428q102 0 163 -124l-86 -44q-33 73 -76 73q-37 0 -58.5 -28.5t-21.5 -137.5v-138q0 -114 21.5 -142t58.5 -28q43 0 81 76l85 -50q-70 -122 -167 -122q-80 0 -130.5 57.5t-50.5 208.5v138 q0 147 50.5 204t130.5 57z" />
<glyph unicode="&#x241c;" d="M370 1119v-288h-100v642h313v-94h-213v-166h172v-94h-172zM578 216q29 0 48.5 18.5t19.5 54.5q0 29 -38 66l-127 121q-58 56 -58 142q0 73 45 118t117 45q98 0 168 -104l-80 -57q-36 67 -87 67q-29 0 -46 -15.5t-17 -53.5q0 -37 29 -65l126 -122q68 -65 68 -141 q0 -75 -47 -121t-120 -46q-123 0 -186 122l76 54q43 -83 109 -83z" />
<glyph unicode="&#x241d;" d="M256 1200q0 146 46 203t121 57q101 0 160 -124l-84 -43q-32 72 -75 72q-32 0 -48 -26q-20 -29 -20 -139v-164q0 -141 63 -141q64 0 64 141v60h-69v95h170v-155q0 -126 -46.5 -181t-118.5 -55q-71 0 -117 55t-46 181v164zM591 194q29 0 49 18t20 55q0 28 -38 64l-127 122 q-59 57 -59 142q0 73 45.5 118.5t118.5 45.5q97 0 167 -105l-80 -56q-37 67 -87 67q-28 0 -46 -16t-18 -53q0 -38 30 -67l127 -120q67 -65 67 -142q0 -74 -47 -121t-121 -47q-123 0 -185 123l76 54q43 -82 108 -82z" />
<glyph unicode="&#x241e;" d="M362 820h-100v648h148q86 0 129 -47t43 -125q0 -123 -91 -168l103 -244v-64h-84l-114 291h-34v-291zM362 1207h50q68 0 68 89q0 78 -71 78h-47v-167zM586 200q29 0 49 18.5t20 54.5q0 28 -38 66l-128 123q-59 57 -59 144q0 72 46 118t118 46q99 0 168 -105l-79 -57 q-38 67 -88 67q-30 0 -47.5 -16.5t-17.5 -52.5q0 -39 30 -67l128 -123q68 -65 68 -143q0 -74 -47 -121t-123 -47q-122 0 -186 124l77 54q43 -83 109 -83z" />
<glyph unicode="&#x241f;" d="M255 1468h100v-447q0 -73 17.5 -93.5t42.5 -20.5t42.5 21t17.5 93v447h102v-447q0 -106 -47 -158t-115 -52q-67 0 -113.5 52t-46.5 158v447zM591 200q29 0 49.5 18.5t20.5 54.5q0 28 -39 66l-128 123q-59 57 -59 144q0 72 45.5 118t118.5 46q98 0 169 -105l-80 -57 q-37 67 -88 67q-29 0 -47 -16t-18 -53q0 -39 30 -67l128 -123q68 -65 68 -143q0 -74 -47 -121t-123 -47q-122 0 -186 124l77 54q43 -83 109 -83z" />
<glyph unicode="&#x2420;" d="M432 907q29 0 48.5 18.5t19.5 54.5q0 29 -38 66l-129 124q-59 56 -59 143q0 72 46 118.5t120 46.5q98 0 169 -106l-81 -57q-37 67 -88 67q-29 0 -47 -16.5t-18 -52.5q0 -38 30 -67l128 -123q69 -65 69 -143q0 -74 -48 -121t-122 -47q-124 0 -188 124l78 54 q43 -83 110 -83zM780 585q0 -90 -49.5 -139.5t-128.5 -49.5h-48v-283h-100v649h148q87 0 132.5 -50t45.5 -127zM554 491h47q76 0 76 94q0 83 -76 83h-47v-177z" />
<glyph unicode="&#x2421;" d="M283 1832q101 0 160 -68.5t59 -195.5v-120q0 -127 -59 -199t-160 -72h-117v655h117zM268 1273h15q53 0 84 42t31 133v120q0 168 -115 168h-15v-463zM452 1023v-170h157v-96h-157v-198h212v-95h-313v655h313v-96h-212zM858 -154v-95h-310v654h101v-559h209z" />
<glyph unicode="&#x2422;" d="M47 1260l122 58v208h170v-130l243 113v-143l-243 -113v-338q109 147 243 147q131 0 228.5 -109t97.5 -370v-125q0 -260 -97.5 -368.5t-228.5 -108.5q-134 0 -243 146v-127h-170v1175l-122 -58v143zM339 289q73 -158 203 -158q99 0 145 68.5t46 247.5v147q0 180 -46 247.5 t-145 67.5q-130 0 -203 -147v-473z" />
<glyph unicode="&#x2423;" d="M121 267h141v-126h500v126h141v-267h-782v267z" />
<glyph unicode="&#x2424;" d="M771 141v-96h-305v650h100v-554h205zM481 1401h101v-648h-106l-135 421l12 -280v-141h-101v648h105l137 -423l-13 309v114z" />
<glyph unicode="&#x2425;" d="M537 1526l-441 -1337v411l305 926h136zM191 0l505 1526h136l-505 -1526h-136zM486 0l441 1337v-411l-305 -926h-136z" />
<glyph unicode="&#x2426;" d="M164 1171q0 155 109.5 266t262.5 111q243 0 384 -253l-130 -88q-92 189 -253 189q-83 0 -142.5 -60t-59.5 -164q0 -64 31 -110l205 -300q68 -101 68 -214v-56h-171v55q0 64 -31 109l-209 304q-64 96 -64 211zM405 110q0 55 38 93t93 38q54 0 92 -38t38 -93 q0 -54 -38 -91.5t-92 -37.5q-55 0 -93 37.5t-38 91.5z" />
<glyph unicode="&#x2500;" d="M-19 681v160h1062v-160h-1062z" />
<glyph unicode="&#x2501;" d="M1043 1002v-481h-1062v481h1062z" />
<glyph unicode="&#x2502;" d="M592 -362h-160v2246h160v-2246z" />
<glyph unicode="&#x2503;" d="M753 -362h-482v2246h482v-2246z" />
<glyph unicode="&#x2504;" d="M0 681v160h205v-160h-205zM819 681v160h205v-160h-205zM410 681v160h204v-160h-204z" />
<glyph unicode="&#x2505;" d="M0 521v481h205v-481h-205zM410 521v481h204v-481h-204zM819 521v481h205v-481h-205z" />
<glyph unicode="&#x2506;" d="M592 536h-160v449h160v-449zM592 -362h-160v449h160v-449zM592 1435h-160v449h160v-449z" />
<glyph unicode="&#x2507;" d="M753 1435h-482v449h482v-449zM753 536h-482v449h482v-449zM753 -362h-482v449h482v-449z" />
<glyph unicode="&#x2508;" d="M0 681v160h146v-160h-146zM293 681v160h146v-160h-146zM585 681v160h146v-160h-146zM878 681v160h146v-160h-146z" />
<glyph unicode="&#x2509;" d="M585 521v481h146v-481h-146zM293 521v481h146v-481h-146zM0 521v481h146v-481h-146zM878 521v481h146v-481h-146z" />
<glyph unicode="&#x250a;" d="M592 1563h-160v321h160v-321zM592 922h-160v320h160v-320zM592 280h-160v321h160v-321zM592 -362h-160v321h160v-321z" />
<glyph unicode="&#x250b;" d="M753 1563h-482v321h482v-321zM753 922h-482v320h482v-320zM753 280h-482v321h482v-321zM753 -362h-482v321h482v-321z" />
<glyph unicode="&#x250c;" d="M432 841h592v-160h-432v-1043h-160v1203z" />
<glyph unicode="&#x250d;" d="M1024 1002v-481h-432v-883h-160v1364h592z" />
<glyph unicode="&#x250e;" d="M1024 841v-160h-271v-1043h-482v1203h753z" />
<glyph unicode="&#x250f;" d="M1024 1002v-481h-271v-883h-482v1364h753z" />
<glyph unicode="&#x2510;" d="M592 -362h-160v1043h-432v160h592v-1203z" />
<glyph unicode="&#x2511;" d="M592 1002v-1364h-160v883h-432v481h592z" />
<glyph unicode="&#x2512;" d="M753 841v-1203h-482v1043h-271v160h753z" />
<glyph unicode="&#x2513;" d="M753 1002v-1364h-482v883h-271v481h753z" />
<glyph unicode="&#x2514;" d="M432 1884h160v-1043h432v-160h-592v1203z" />
<glyph unicode="&#x2515;" d="M432 521v1363h160v-882h432v-481h-592z" />
<glyph unicode="&#x2516;" d="M271 681v1203h482v-1043h271v-160h-753z" />
<glyph unicode="&#x2517;" d="M271 522v1362h482v-882h271v-481z" />
<glyph unicode="&#x2518;" d="M592 680h-592v160h432v1044h160v-1204z" />
<glyph unicode="&#x2519;" d="M0 521v481h432v882h160v-1363h-592z" />
<glyph unicode="&#x251a;" d="M0 681v160h271v1043h482v-1203h-753z" />
<glyph unicode="&#x251b;" d="M0 521v481h271v882h482v-1363h-753z" />
<glyph unicode="&#x251c;" d="M432 1884h160v-1043h432v-160h-432v-1043h-160v2246z" />
<glyph unicode="&#x251d;" d="M432 1884h160v-882h432v-481h-432v-883h-160v2246z" />
<glyph unicode="&#x251e;" d="M271 1884h482v-1043h271v-160h-432v-1043h-160v1043h-161v1203z" />
<glyph unicode="&#x251f;" d="M271 841h161v1043h160v-1043h432v-160h-271v-1043h-482v1203z" />
<glyph unicode="&#x2520;" d="M271 1884h482v-1043h271v-160h-271v-1043h-482v2246z" />
<glyph unicode="&#x2521;" d="M271 1884h482v-882h271v-481h-432v-883h-160v883h-161v1363z" />
<glyph unicode="&#x2522;" d="M271 1002h161v882h160v-882h432v-481h-271v-883h-482v1364z" />
<glyph unicode="&#x2523;" d="M1024 1002v-481h-271v-883h-482v2246h482v-882h271z" />
<glyph unicode="&#x2524;" d="M0 681v160h432v1043h160v-2246h-160v1043h-432z" />
<glyph unicode="&#x2525;" d="M592 -362h-160v883h-432v481h432v882h160v-2246z" />
<glyph unicode="&#x2526;" d="M753 681h-161v-1043h-160v1043h-432v160h271v1043h482v-1203z" />
<glyph unicode="&#x2527;" d="M753 -362h-482v1043h-271v160h432v1043h160v-1043h161v-1203z" />
<glyph unicode="&#x2528;" d="M753 -362h-482v1043h-271v160h271v1043h482v-2246z" />
<glyph unicode="&#x2529;" d="M753 521h-161v-883h-160v883h-432v481h271v882h482v-1363z" />
<glyph unicode="&#x252a;" d="M753 -362h-482v883h-271v481h432v882h160v-882h161v-1364z" />
<glyph unicode="&#x252b;" d="M753 -362h-482v883h-271v481h271v882h482v-2246z" />
<glyph unicode="&#x252c;" d="M0 681v160h1024v-160h-432v-1043h-160v1043h-432z" />
<glyph unicode="&#x252d;" d="M0 521v481h592v-161h432v-160h-432v-1043h-160v883h-432z" />
<glyph unicode="&#x252e;" d="M592 521v-883h-160v1043h-432v160h432v161h592v-481h-432z" />
<glyph unicode="&#x252f;" d="M592 521v-883h-160v883h-432v481h1024v-481h-432z" />
<glyph unicode="&#x2530;" d="M753 681v-1043h-482v1043h-271v160h1024v-160h-271z" />
<glyph unicode="&#x2531;" d="M0 521v481h753v-161h271v-160h-271v-1043h-482v883h-271z" />
<glyph unicode="&#x2532;" d="M753 521v-883h-482v1043h-271v160h271v161h753v-481h-271z" />
<glyph unicode="&#x2533;" d="M1024 1002v-481h-271v-883h-482v883h-271v481h1024z" />
<glyph unicode="&#x2534;" d="M0 681v160h432v1043h160v-1043h432v-160h-1024z" />
<glyph unicode="&#x2535;" d="M432 1002v882h160v-1043h432v-160h-432v-160h-592v481h432z" />
<glyph unicode="&#x2536;" d="M1024 1002v-481h-592v160h-432v160h432v1043h160v-882h432z" />
<glyph unicode="&#x2537;" d="M1024 1002v-481h-1024v481h432v882h160v-882h432z" />
<glyph unicode="&#x2538;" d="M1024 841v-160h-1024v160h271v1043h482v-1043h271z" />
<glyph unicode="&#x2539;" d="M271 1002v882h482v-1043h271v-160h-271v-160h-753v481h271z" />
<glyph unicode="&#x253a;" d="M1024 1002v-481h-753v160h-271v160h271v1043h482v-882h271z" />
<glyph unicode="&#x253b;" d="M1024 1002v-481h-1024v481h271v882h482v-882h271z" />
<glyph unicode="&#x253c;" d="M0 681v160h432v1043h160v-1043h432v-160h-432v-1043h-160v1043h-432z" />
<glyph unicode="&#x253d;" d="M0 521v481h432v882h160v-1043h432v-160h-432v-1043h-160v883h-432z" />
<glyph unicode="&#x253e;" d="M592 521v-883h-160v1043h-432v160h432v1043h160v-882h432v-481h-432z" />
<glyph unicode="&#x253f;" d="M592 521v-883h-160v883h-432v481h432v882h160v-882h432v-481h-432z" />
<glyph unicode="&#x2540;" d="M0 681v160h271v1043h482v-1043h271v-160h-432v-1043h-160v1043h-432z" />
<glyph unicode="&#x2541;" d="M432 841v1043h160v-1043h432v-160h-271v-1043h-482v1043h-271v160h432z" />
<glyph unicode="&#x2542;" d="M271 841v1043h482v-1043h271v-160h-271v-1043h-482v1043h-271v160h271z" />
<glyph unicode="&#x2543;" d="M271 1002v882h482v-1043h271v-160h-271v-160h-161v-883h-160v883h-432v481h271z" />
<glyph unicode="&#x2544;" d="M1024 1002v-481h-432v-883h-160v883h-161v160h-271v160h271v1043h482v-882h271z" />
<glyph unicode="&#x2545;" d="M0 521v481h432v882h160v-882h161v-161h271v-160h-271v-1043h-482v883h-271z" />
<glyph unicode="&#x2546;" d="M753 521v-883h-482v1043h-271v160h271v161h161v882h160v-882h432v-481h-271z" />
<glyph unicode="&#x2547;" d="M592 521v-883h-160v883h-432v481h271v882h482v-882h271v-481h-432z" />
<glyph unicode="&#x2548;" d="M1024 1002v-481h-271v-883h-482v883h-271v481h432v882h160v-882h432z" />
<glyph unicode="&#x2549;" d="M271 1002v882h482v-1043h271v-160h-271v-1043h-482v883h-271v481h271z" />
<glyph unicode="&#x254a;" d="M1024 1002v-481h-271v-883h-482v1043h-271v160h271v1043h482v-882h271z" />
<glyph unicode="&#x254b;" d="M1024 1002v-481h-271v-883h-482v883h-271v481h271v882h482v-882h271z" />
<glyph unicode="&#x254c;" d="M0 681v160h341v-160h-341zM683 681v160h341v-160h-341z" />
<glyph unicode="&#x254d;" d="M0 521v481h341v-481h-341zM683 521v481h341v-481h-341z" />
<glyph unicode="&#x254e;" d="M592 1135h-160v749h160v-749zM592 -362h-160v748h160v-748z" />
<glyph unicode="&#x254f;" d="M753 1135h-482v749h482v-749zM753 -362h-482v748h482v-748z" />
<glyph unicode="&#x2550;" d="M0 521v160h1024v-160h-1024zM0 841v161h1024v-161h-1024z" />
<glyph unicode="&#x2551;" d="M432 -362h-161v2246h161v-2246zM753 -362h-161v2246h161v-2246z" />
<glyph unicode="&#x2552;" d="M432 1002h592v-161h-432v-160h432v-160h-432v-883h-160v1364z" />
<glyph unicode="&#x2553;" d="M1024 841v-160h-271v-1043h-161v1043h-160v-1043h-161v1203h753z" />
<glyph unicode="&#x2554;" d="M271 -362v1364h753v-161h-592v-1203h-161zM753 -362h-161v1043h432v-160h-271v-883z" />
<glyph unicode="&#x2555;" d="M592 -362h-160v883h-432v160h432v160h-432v161h592v-1364z" />
<glyph unicode="&#x2556;" d="M753 841v-1203h-161v1043h-160v-1043h-161v1043h-271v160h753z" />
<glyph unicode="&#x2557;" d="M592 -362v1203h-592v161h753v-1364h-161zM271 521h-271v160h432v-1043h-161v883z" />
<glyph unicode="&#x2558;" d="M432 1884h160v-883h432v-161h-432v-160h432v-159h-592v1363z" />
<glyph unicode="&#x2559;" d="M271 681v1203h161v-1043h160v1043h161v-1043h271v-160h-753z" />
<glyph unicode="&#x255a;" d="M432 1884v-1203h592v-160h-753v1363h161zM753 1002h271v-161h-432v1043h161v-882z" />
<glyph unicode="&#x255b;" d="M592 521h-592v159h432v160h-432v161h432v883h160v-1363z" />
<glyph unicode="&#x255c;" d="M0 681v160h271v1043h161v-1043h160v1043h161v-1203h-753z" />
<glyph unicode="&#x255d;" d="M753 1884v-1363h-753v160h592v1203h161zM271 1884h161v-1043h-432v161h271v882z" />
<glyph unicode="&#x255e;" d="M592 -362h-160v2246h160v-882h432v-161h-432v-160h432v-160h-432v-883z" />
<glyph unicode="&#x255f;" d="M753 -362h-161v2246h161v-1043h271v-160h-271v-1043zM432 -362h-161v2246h161v-2246z" />
<glyph unicode="&#x2560;" d="M271 -362v2246h161v-2246h-161zM592 840v1044h161v-882h271v-162h-432zM753 -362h-161v1041h432v-158h-271v-883z" />
<glyph unicode="&#x2561;" d="M432 521h-432v160h432v160h-432v161h432v882h160v-2246h-160v883z" />
<glyph unicode="&#x2562;" d="M271 681h-271v160h271v1043h161v-2246h-161v1043zM592 1884h161v-2246h-161v2246z" />
<glyph unicode="&#x2563;" d="M592 -362v2246h161v-2246h-161zM0 841v161h271v882h161v-1043h-432zM271 521h-271v160h432v-1043h-161v883z" />
<glyph unicode="&#x2564;" d="M592 -362h-160v883h-432v160h1024v-160h-432v-883zM0 841v161h1024v-161h-1024z" />
<glyph unicode="&#x2565;" d="M753 -362h-161v1043h-160v-1043h-161v1043h-271v160h1024v-160h-271v-1043z" />
<glyph unicode="&#x2566;" d="M753 -362h-161v1043h432v-160h-271v-883zM271 521h-271v160h432v-1043h-161v883zM0 841v161h1024v-161h-1024z" />
<glyph unicode="&#x2567;" d="M592 1002h432v-161h-1024v161h432v882h160v-882zM1024 681v-160h-1024v160h1024z" />
<glyph unicode="&#x2568;" d="M753 841h271v-160h-1024v160h271v1043h161v-1043h160v1043h161v-1043z" />
<glyph unicode="&#x2569;" d="M753 1002h271v-161h-432v1043h161v-882zM271 1884h161v-1043h-432v161h271v882zM1024 681v-160h-1024v160h1024z" />
<glyph unicode="&#x256a;" d="M0 841v161h432v882h160v-882h432v-161h-432v-160h432v-160h-432v-883h-160v883h-432v160h432v160h-432z" />
<glyph unicode="&#x256b;" d="M0 681v160h271v1043h161v-1043h160v1043h161v-1043h271v-160h-271v-1043h-161v1043h-160v-1043h-161v1043h-271z" />
<glyph unicode="&#x256c;" d="M0 841v161h271v882h161v-1043h-432zM753 -362h-161v1043h432v-160h-271v-883zM592 841v1043h161v-882h271v-161h-432zM271 521h-271v160h432v-1043h-161v883z" />
<glyph unicode="&#x256d;" d="M963 841h61v-160h-80q-352 0 -352 -352v-691h-160v672q0 531 531 531z" />
<glyph unicode="&#x256e;" d="M61 841q531 0 531 -531v-672h-160v691q0 352 -352 352h-80v160h61z" />
<glyph unicode="&#x256f;" d="M61 681h-61v160h80q352 0 352 352v691h160v-672q0 -531 -531 -531z" />
<glyph unicode="&#x2570;" d="M963 681q-531 0 -531 531v672h160v-691q0 -352 352 -352h99v-160h-80z" />
<glyph unicode="&#x2571;" d="M101 -362h-120v120l942 2126h120v-121z" />
<glyph unicode="&#x2572;" d="M-19 1763v121h120l942 -2126v-120h-120z" />
<glyph unicode="&#x2573;" d="M101 -362h-120v120l443 1002l-443 1003v121h120l411 -928l411 928h120v-121l-444 -1003l444 -1002v-120h-120l-411 926z" />
<glyph unicode="&#x2574;" d="M0 681v160h512v-160h-512z" />
<glyph unicode="&#x2575;" d="M592 761h-160v1123h160v-1123z" />
<glyph unicode="&#x2576;" d="M512 681v160h512v-160h-512z" />
<glyph unicode="&#x2577;" d="M592 -362h-160v1123h160v-1123z" />
<glyph unicode="&#x2578;" d="M512 1002v-481h-512v481h512z" />
<glyph unicode="&#x2579;" d="M753 761h-482v1123h482v-1123z" />
<glyph unicode="&#x257a;" d="M1024 1002v-481h-512v481h512z" />
<glyph unicode="&#x257b;" d="M753 -362h-482v1123h482v-1123z" />
<glyph unicode="&#x257c;" d="M1024 1002v-481h-512v160h-512v160h512v161h512z" />
<glyph unicode="&#x257d;" d="M753 -362h-482v1123h161v1123h160v-1123h161v-1123z" />
<glyph unicode="&#x257e;" d="M512 1002v-161h512v-160h-512v-160h-512v481h512z" />
<glyph unicode="&#x257f;" d="M753 761h-161v-1123h-160v1123h-161v1123h482v-1123z" />
<glyph unicode="&#x2580;" d="M0 1884h1024v-1123h-1024v1123z" />
<glyph unicode="&#x2581;" d="M0 -81h1024v-281h-1024v281z" />
<glyph unicode="&#x2582;" d="M0 199h1024v-561h-1024v561z" />
<glyph unicode="&#x2583;" d="M0 480h1024v-842h-1024v842z" />
<glyph unicode="&#x2584;" d="M0 761h1024v-1123h-1024v1123z" />
<glyph unicode="&#x2585;" d="M0 1042h1024v-1404h-1024v1404z" />
<glyph unicode="&#x2586;" d="M0 1322h1024v-1684h-1024v1684z" />
<glyph unicode="&#x2587;" d="M0 1604h1024v-1966h-1024v1966z" />
<glyph unicode="&#x2588;" d="M0 1884h1024v-2246h-1024v2246z" />
<glyph unicode="&#x2589;" d="M0 1884h910v-2246h-910v2246z" />
<glyph unicode="&#x258a;" d="M0 1884h778v-2246h-778v2246z" />
<glyph unicode="&#x258b;" d="M0 1884h644v-2246h-644v2246z" />
<glyph unicode="&#x258c;" d="M0 1884h512v-2246h-512v2246z" />
<glyph unicode="&#x258d;" d="M0 1884h379v-2246h-379v2246z" />
<glyph unicode="&#x258e;" d="M0 1884h246v-2246h-246v2246z" />
<glyph unicode="&#x258f;" d="M0 1884h113v-2246h-113v2246z" />
<glyph unicode="&#x2590;" d="M512 1884h512v-2246h-512v2246z" />
<glyph unicode="&#x2591;" d="M0 1884h127v-279h-127v279zM513 1884h126v-279h-126v279zM257 1603h127v-280h-127v280zM769 1603h126v-280h-126v280zM0 1321h127v-278h-127v278zM513 1321h126v-278h-126v278zM257 1041h127v-279h-127v279zM769 1041h126v-279h-126v279zM0 760h127v-278h-127v278z M513 760h126v-278h-126v278zM257 479h127v-279h-127v279zM769 479h126v-279h-126v279zM0 198h127v-278h-127v278zM513 198h126v-278h-126v278zM257 -82h127v-279h-127v279zM769 -82h126v-279h-126v279z" />
<glyph unicode="&#x2592;" d="M0 1884h127v-279h-127v279zM257 1884h127v-279h-127v279zM513 1884h126v-279h-126v279zM769 1884h126v-279h-126v279zM128 1603h127v-280h-127v280zM385 1603h126v-280h-126v280zM640 1603h127v-280h-127v280zM897 1603h127v-280h-127v280zM0 1321h127v-278h-127v278z M257 1321h127v-278h-127v278zM513 1321h126v-278h-126v278zM769 1321h126v-278h-126v278zM128 1041h127v-255h-127v255zM385 1041h126v-255h-126v255zM640 1041h127v-255h-127v255zM897 1041h127v-255h-127v255zM0 784h127v-303h-127v303zM257 784h127v-303h-127v303z M513 784h126v-303h-126v303zM769 784h126v-303h-126v303zM128 479h127v-279h-127v279zM385 479h126v-279h-126v279zM640 479h127v-279h-127v279zM897 479h127v-279h-127v279zM0 198h127v-278h-127v278zM257 198h127v-278h-127v278zM513 198h126v-278h-126v278zM769 198h126 v-278h-126v278zM128 -82h127v-280h-127v280zM385 -82h126v-280h-126v280zM640 -82h127v-280h-127v280zM897 -82h127v-280h-127v280z" />
<glyph unicode="&#x2593;" d="M0 1605h127v279h386v-279h126v279h386v-2246h-130v280h-126v-280h-385v280h-127v-280h-257v282h127v278h-127v284h127v278h-127v283h127v278h-127v284zM257 1323h127v280h-127v-280zM257 200h127v279h-127v-279zM769 200h126v279h-126v-279zM257 762h127v279h-127v-279z M769 762h126v279h-126v-279zM769 1323h126v280h-126v-280zM513 -80h126v278h-126v-278zM513 1043h126v278h-126v-278zM513 482h126v278h-126v-278z" />
<glyph unicode="&#x2594;" d="M0 1884h1024v-280h-1024v280z" />
<glyph unicode="&#x2595;" d="M911 1884h113v-2246h-113v2246z" />
<glyph unicode="&#x2596;" d="M0 761h512v-1123h-512v1123z" />
<glyph unicode="&#x2597;" d="M512 761h512v-1123h-512v1123z" />
<glyph unicode="&#x2598;" d="M0 1884h512v-1123h-512v1123z" />
<glyph unicode="&#x2599;" d="M0 1884h512v-1123h512v-1123h-1024v2246z" />
<glyph unicode="&#x259a;" d="M511 761h-511v1123h511v-1123zM1024 -362h-511v1123h511v-1123z" />
<glyph unicode="&#x259b;" d="M0 1884h1024v-1123h-512v-1123h-512v2246z" />
<glyph unicode="&#x259c;" d="M1024 -362h-512v1123h-512v1123h1024v-2246z" />
<glyph unicode="&#x259d;" d="M512 1884h512v-1123h-512v1123z" />
<glyph unicode="&#x259e;" d="M513 1884h511v-1123h-511v1123zM0 761h511v-1123h-511v1123z" />
<glyph unicode="&#x259f;" d="M1024 -362h-1024v1123h512v1123h512v-2246z" />
<glyph unicode="&#x25ca;" d="M866 764l-268 -764h-176l-265 764l265 762h176zM685 764l-174 515l-180 -515l180 -516z" />
<glyph unicode="&#x25fc;" horiz-adv-x="1130" d="M0 1130h1130v-1130h-1130v1130z" />
<glyph unicode="&#x2e2e;" d="M164 1171q0 155 109.5 266t262.5 111q243 0 384 -253l-130 -88q-92 189 -253 189q-83 0 -142.5 -60t-59.5 -164q0 -64 31 -110l205 -300q68 -101 68 -214v-56h-171v55q0 64 -31 109l-209 304q-64 96 -64 211zM405 110q0 55 38 93t93 38q54 0 92 -38t38 -93 q0 -54 -38 -91.5t-92 -37.5q-55 0 -93 37.5t-38 91.5z" />
<glyph unicode="&#xe0a0;" d="M412 -353h-267v466q0 173 76 282q52 76 163 149l147 95q87 57 124.5 134t37.5 203v317h-202l282 331l282 -331h-202v-371q0 -186 -51.5 -285t-155.5 -167l-72 -48q-90 -59 -124 -120q-38 -68 -38 -189v-466zM412 792l-267 -172v1264h267v-1092z" />
<glyph unicode="&#xe0a1;" d="M676 930v-127h-489v869h150v-742h339zM682 724h154v-869h-162l-236 565l18 -377v-188h-152v869h160l238 -567l-20 415v152z" />
<glyph unicode="&#xe0a2;" d="M256 0q-136 0 -136 136v666q0 146 117 146v295q0 133 81 220q78 85 194 85t194 -85q81 -87 81 -220v-295q117 0 117 -146v-666q0 -136 -136 -136h-512zM512 1422q-65 0 -104 -48.5t-39 -130.5v-295h286v295q0 82 -39 130.5t-104 48.5zM566 228v312q66 34 66 107 q0 49 -35.5 84.5t-84.5 35.5t-84.5 -35.5t-35.5 -84.5q0 -73 66 -107v-312h108z" />
<glyph unicode="&#xe0b0;" d="M-29 1884h48l1005 -1123l-1005 -1123h-48v2246z" />
<glyph unicode="&#xe0b1;" d="M-55 1750l93 92l986 -1081l-986 -1081l-93 92l900 989z" />
<glyph unicode="&#xe0b2;" d="M1053 -362h-48l-1005 1123l1005 1123h48v-2246z" />
<glyph unicode="&#xe0b3;" d="M179 761l900 -989l-93 -92l-986 1081l986 1081l93 -92z" />
<glyph unicode="&#xf400;" d="M771 886q0 -84 -34 -122.5t-155 -38.5q-122 0 -151.5 34t-35.5 79q-5 -45 -35 -79t-151 -34q-122 0 -155.5 38.5t-33.5 122.5q0 83 33.5 120.5t155.5 37.5q121 0 151 -33t35 -97q6 64 35.5 97t151.5 33q121 0 155 -37.5t34 -120.5zM44 99v161q148 -152 372 -152 q183 0 294.5 111.5t111.5 343.5v239h152v-239q0 -273 -150.5 -427.5t-407.5 -156.5q-230 0 -372 120zM708 631q-47 -356 -313 -356q-265 0 -312 356q120 -176 312 -176q193 0 313 176zM44 1415q63 7 110 17q50 10 89.5 22.5t73 28t67.5 35t86 48.5q-30 33 -62 55 q-46 31 -102 31q-35 0 -72.5 -24t-70.5 -54t-55 -56t-64 -70v186q57 56 97 83t81.5 43.5t83.5 16.5q73 0 132 -30.5t109 -81.5q19 -20 36 -41q37 13 71 13q33 0 68 -13q4 15 9 30q17 56 17 110v78h125v-78q0 -69 -20 -140q-10 -34 -23 -67q20 -16 41 -37q63 -57 144 -148 l-92 -84q-73 80 -118 127q-18 19 -32 33q-20 -31 -44 -59q26 -52 52 -102q31 -64 62 -114.5t63 -81t68 -30.5v-126q-58 0 -106 31t-88 81t-75.5 114.5t-69.5 131.5q-24 -19 -51 -35q-66 -44 -144.5 -69.5t-166.5 -25.5q-33 0 -70 9t-72.5 24.5t-86.5 45.5v173zM547 1460 q-5 -4 -10 -7q-43 -27 -112 -61q-67 -33 -158 -61q-39 -11 -83 -21l26 -10q32 -11 63 -11q68 0 129.5 20t113.5 55q32 20 59 45zM271 886q0 52 -62 52t-62 -52q0 -54 62 -54t62 54zM645 886q0 52 -63 52q-61 0 -61 -52q0 -54 61 -54q63 0 63 54z" />
<glyph unicode="&#xf6c3;" d="M304 1270l266 256h168l-212 -256h-222z" />
<glyph unicode="&#xf6d7;" d="M856 1337q0 -44 -31.5 -77.5t-80.5 -33.5q-48 0 -79.5 33.5t-31.5 77.5q0 45 31.5 78t79.5 33q49 0 80.5 -33t31.5 -78zM390 1337q0 -44 -31.5 -77.5t-80.5 -33.5q-48 0 -79.5 33.5t-31.5 77.5q0 45 31.5 78t79.5 33q49 0 80.5 -33t31.5 -78zM807 1625l-232 -177h-173 l174 177h231z" />
<glyph unicode="&#xf6d8;" d="M856 1337q0 -44 -31.5 -77.5t-80.5 -33.5q-48 0 -79.5 33.5t-31.5 77.5q0 45 31.5 78t79.5 33q49 0 80.5 -33t31.5 -78zM390 1337q0 -44 -31.5 -77.5t-80.5 -33.5q-48 0 -79.5 33.5t-31.5 77.5q0 45 31.5 78t79.5 33q49 0 80.5 -33t31.5 -78zM448 1625l173 -177h-173 l-232 177h232z" />
</font>
</defs>
</svg>
